<?xml version="1.0" standalone="no"?>
<!DOCTYPE svg PUBLIC "-//W3C//DTD SVG 20010904//EN"
 "http://www.w3.org/TR/2001/REC-SVG-20010904/DTD/svg10.dtd">
<svg version="1.0" xmlns="http://www.w3.org/2000/svg"
 width="714.000000pt" height="720.000000pt" viewBox="0 0 714.000000 720.000000"
 preserveAspectRatio="xMidYMid meet">
<metadata>
Created by potrace 1.10, written by Peter Selinger 2001-2011
</metadata>
<g transform="translate(0.000000,720.000000) scale(0.100000,-0.100000)"
fill="#0a3f8b" stroke="none">
<path d="M3801 7146 c-10 -12 -16 -35 -47 -196 -8 -41 -21 -106 -29 -145 -9
-38 -15 -78 -15 -88 0 -11 -7 -43 -15 -71 l-16 -53 -217 -6 c-122 -3 -231 -11
-249 -17 -38 -14 -68 -1 -76 32 -3 13 -28 88 -57 168 -28 80 -56 161 -62 180
-5 19 -13 40 -17 45 -4 6 -15 36 -26 68 -10 31 -23 57 -29 57 -18 0 -145 -28
-231 -50 -44 -12 -96 -25 -115 -29 -72 -16 -235 -74 -246 -88 -8 -9 -9 -24 -4
-41 5 -15 15 -61 24 -102 26 -128 44 -212 60 -285 24 -115 26 -129 18 -141 -4
-6 -38 -26 -77 -44 -132 -61 -287 -141 -312 -162 -7 -5 -21 -8 -32 -6 -11 2
-110 92 -220 201 -110 108 -204 197 -209 197 -13 0 -121 -73 -155 -104 -15
-14 -49 -42 -75 -61 -68 -52 -202 -175 -202 -186 0 -5 28 -50 63 -100 34 -50
69 -101 77 -114 8 -13 45 -68 81 -122 101 -150 98 -136 45 -196 -48 -55 -82
-95 -122 -140 -14 -15 -50 -60 -80 -100 -62 -80 -79 -94 -97 -78 -7 5 -51 30
-97 54 -47 25 -130 68 -185 97 -55 29 -119 63 -143 76 -71 40 -67 43 -165
-116 -86 -140 -189 -340 -183 -355 3 -10 267 -191 433 -299 21 -14 32 -29 33
-45 0 -23 -50 -173 -71 -213 -5 -10 -13 -34 -18 -55 -36 -140 -47 -168 -66
-172 -11 -2 -74 4 -140 13 -66 10 -165 24 -220 31 -55 8 -122 16 -150 17 l-50
3 -13 -39 c-17 -53 -43 -221 -63 -406 -15 -153 -15 -154 46 -161 64 -9 170
-26 265 -44 41 -8 98 -16 125 -19 28 -3 68 -11 90 -18 40 -13 40 -13 41 -68 1
-30 3 -134 5 -230 l4 -174 -25 -8 c-14 -4 -52 -15 -85 -24 -92 -25 -151 -41
-250 -70 -50 -14 -110 -31 -135 -38 l-45 -11 3 -58 c2 -50 20 -129 93 -422 6
-22 14 -44 20 -49 5 -6 9 -18 9 -28 0 -28 21 -31 92 -14 34 8 99 22 143 31 44
10 107 23 140 31 33 7 76 16 95 19 19 3 47 11 63 17 22 9 31 7 47 -7 11 -10
20 -26 20 -35 0 -9 7 -25 15 -36 8 -10 15 -25 15 -31 0 -14 57 -141 101 -226
17 -32 28 -65 25 -72 -3 -8 -29 -29 -58 -49 -29 -19 -89 -60 -133 -91 -44 -30
-122 -83 -172 -117 -65 -43 -93 -67 -93 -81 0 -29 157 -281 217 -347 13 -14
23 -28 23 -32 0 -12 92 -108 104 -108 7 0 21 8 32 18 10 10 43 32 73 50 29 19
91 61 137 95 197 146 213 157 228 151 9 -3 47 -43 86 -89 70 -82 112 -123 205
-200 65 -54 75 -64 75 -78 0 -7 -20 -43 -45 -82 -61 -97 -201 -327 -209 -345
-4 -8 -13 -26 -22 -40 -14 -24 -13 -27 29 -65 24 -22 72 -60 108 -84 98 -68
338 -211 353 -211 8 0 90 101 182 224 119 158 175 225 189 225 11 1 74 -22
140 -50 156 -67 149 -64 230 -90 39 -12 87 -29 108 -37 43 -18 44 -24 23 -146
-8 -45 -21 -135 -31 -201 -9 -66 -21 -144 -27 -173 -12 -64 -3 -78 55 -87 23
-4 65 -13 92 -20 46 -13 122 -24 369 -56 102 -13 100 -15 116 71 6 30 17 87
24 125 8 39 22 108 31 155 30 153 38 185 47 202 8 16 25 18 131 18 100 0 325
13 411 23 25 3 37 -28 101 -253 34 -119 48 -167 60 -205 7 -22 16 -52 19 -68
8 -32 20 -34 114 -11 264 63 503 136 523 160 7 9 8 23 1 46 -6 18 -17 67 -26
108 -23 111 -43 206 -61 290 -25 113 -25 114 -17 126 4 5 77 45 162 87 179 90
237 122 260 142 25 23 35 19 72 -27 18 -24 40 -52 49 -63 42 -50 150 -188 208
-262 35 -46 68 -83 73 -83 16 0 228 166 358 280 36 31 75 65 88 76 30 25 28
40 -12 99 -18 27 -53 82 -78 120 -90 140 -117 181 -152 230 -39 55 -45 85 -19
106 13 12 69 77 191 224 9 11 30 39 46 63 16 23 35 42 42 42 7 0 68 -26 136
-59 68 -32 155 -73 193 -91 39 -18 97 -46 129 -61 33 -16 63 -29 67 -29 20 0
269 449 269 484 0 6 -105 81 -234 166 -129 85 -237 161 -240 168 -3 8 5 41 19
75 13 34 38 107 55 162 17 55 39 123 48 150 l18 50 49 -3 c28 -1 100 -9 160
-17 188 -24 342 -38 358 -32 9 3 19 23 22 44 3 21 12 76 20 123 21 126 37 308
33 365 l-3 50 -45 6 c-92 14 -187 30 -251 44 -37 8 -82 15 -100 16 -19 1 -63
8 -99 17 l-65 17 -6 155 c-4 85 -12 202 -18 259 -7 57 -8 107 -4 111 9 8 69
28 158 55 33 9 80 24 105 31 69 22 222 66 248 71 13 3 26 12 29 19 5 15 -6 79
-32 184 -8 36 -20 83 -25 106 -5 22 -13 51 -18 65 -5 13 -17 51 -27 84 -18 65
-44 125 -54 125 -7 0 -270 -73 -386 -106 -27 -8 -68 -19 -90 -25 -22 -5 -48
-12 -57 -15 -17 -5 -22 3 -72 121 -26 61 -111 232 -143 287 -36 62 -40 83 -19
95 8 4 54 46 103 93 49 47 137 129 196 184 59 54 107 103 107 108 0 8 -54 83
-145 198 -19 25 -41 52 -48 61 -6 9 -34 43 -62 74 -27 32 -54 64 -58 71 -10
18 -36 18 -56 0 -24 -20 -348 -237 -403 -269 l-46 -27 -53 48 c-29 26 -80 72
-114 104 -33 31 -73 67 -90 79 -16 13 -32 26 -35 30 -3 3 -15 11 -27 18 -13 6
-23 17 -23 23 0 6 17 47 39 92 21 44 48 104 61 131 12 28 32 73 45 100 12 28
33 73 44 100 12 28 30 64 39 82 9 18 14 34 12 36 -3 2 -23 17 -45 34 -43 32
-288 183 -298 183 -3 0 -29 14 -57 30 -63 37 -75 37 -97 3 -10 -16 -21 -32
-26 -38 -15 -18 -222 -302 -237 -325 -51 -76 -65 -82 -123 -55 -43 19 -198 77
-272 100 -33 11 -64 23 -70 28 -6 5 -10 119 -10 305 l0 297 -65 12 c-36 7 -94
18 -130 23 -36 6 -85 15 -110 20 -76 17 -247 21 -259 6z m-501 -918 c20 -36 8
-46 -66 -56 -56 -7 -59 -9 -62 -36 -5 -38 9 -50 41 -35 51 23 131 -41 129
-102 -1 -45 -19 -69 -52 -69 -38 0 -43 11 -29 60 16 53 2 71 -37 45 -26 -17
-26 -18 -20 -96 l7 -79 -35 0 c-39 0 -66 28 -66 67 0 24 -19 30 -37 12 -16
-16 -97 -16 -118 1 -67 56 -22 144 75 145 39 1 45 4 48 24 6 41 -10 44 -109
20 -52 -12 -98 -25 -102 -29 -5 -4 6 -47 23 -96 71 -205 72 -216 8 -198 -38
11 -44 23 -89 162 -34 108 -39 113 -90 87 -28 -15 -29 -17 -15 -43 7 -15 17
-42 21 -59 3 -18 11 -35 16 -38 5 -4 9 -21 9 -40 0 -52 -31 -56 -122 -17 -43
18 -49 42 -17 64 19 12 21 20 15 51 -8 42 -17 44 -78 18 -59 -25 -76 -46 -56
-69 28 -32 119 -215 114 -229 -9 -22 -65 -16 -89 11 -12 13 -42 63 -66 111
-24 47 -49 89 -56 92 -7 2 -27 -3 -45 -12 -40 -21 -37 -29 52 -161 42 -62 68
-110 64 -119 -8 -22 -72 -19 -93 4 -10 10 -43 57 -73 105 -30 48 -59 91 -65
96 -8 6 -23 -1 -46 -19 l-34 -29 50 -53 c28 -30 52 -56 55 -59 3 -3 24 -28 47
-56 45 -56 44 -65 -9 -78 -15 -3 -35 -19 -45 -34 -26 -42 -54 -67 -98 -91 -70
-37 -155 -21 -155 31 0 11 -11 23 -27 29 -75 28 -82 71 -21 123 39 33 41 38
26 52 -15 15 -22 12 -92 -47 -41 -35 -76 -71 -76 -80 0 -8 32 -44 72 -80 156
-140 160 -147 103 -168 -42 -15 -32 -21 -154 96 -47 45 -90 83 -94 83 -15 0
-69 -62 -60 -70 11 -11 145 -103 206 -142 26 -17 47 -34 47 -39 0 -13 -51 -49
-70 -49 -9 0 -30 11 -46 25 -48 42 -82 26 -45 -21 41 -52 15 -142 -52 -182
-39 -22 -113 -42 -161 -42 -32 0 -36 3 -36 25 0 22 4 25 38 25 47 0 117 32
132 60 17 33 9 74 -16 78 -17 2 -29 -9 -53 -47 -31 -52 -47 -59 -82 -41 -25
14 -24 32 6 76 19 28 22 40 14 55 -16 31 -29 22 -55 -36 -26 -57 -51 -79 -78
-69 -25 10 -25 28 3 84 29 60 69 88 141 97 33 5 42 1 65 -23 26 -28 27 -28 41
-9 20 28 18 37 -20 73 -41 39 -52 40 -82 6 -17 -18 -32 -24 -52 -22 -40 4 -38
28 8 76 22 24 40 48 40 53 0 15 -36 10 -50 -6 -15 -18 -61 -20 -78 -3 -17 17
-15 48 2 48 26 0 29 21 5 46 l-22 24 23 25 c14 14 35 25 50 25 29 0 120 -28
135 -41 5 -5 15 -9 23 -9 11 0 113 85 212 178 25 23 202 147 240 168 11 6 29
19 41 30 19 17 19 19 2 25 -29 12 -112 10 -132 -3 -28 -17 -83 7 -79 36 9 60
138 57 264 -5 17 -9 29 -6 60 13 22 12 56 32 77 42 36 19 47 39 27 51 -13 8
-13 71 0 95 13 23 66 56 105 63 31 6 138 -12 211 -34 37 -11 50 -10 140 18 54
17 140 38 189 48 50 9 122 22 160 30 92 17 106 15 125 -17z m569 1 c24 -17 49
-46 58 -67 14 -34 14 -40 -1 -66 -21 -36 -9 -48 44 -44 31 3 35 7 44 42 8 36
6 42 -16 60 -29 24 -50 60 -41 70 19 18 126 -2 333 -64 41 -13 89 -29 107 -36
17 -8 36 -14 42 -14 6 0 19 -4 29 -10 9 -5 60 -27 112 -49 140 -58 351 -173
382 -208 9 -10 18 -27 20 -38 2 -15 12 -21 41 -23 27 -2 48 -14 79 -43 23 -21
49 -39 58 -39 27 0 107 -68 260 -220 116 -116 270 -303 270 -328 0 -5 7 -15
15 -22 25 -21 17 -90 -11 -90 -8 0 -19 9 -26 20 -7 11 -17 20 -21 20 -5 0 -60
-39 -124 -86 -68 -51 -121 -83 -130 -80 -10 4 -13 18 -11 48 2 36 8 46 35 63
37 23 41 49 13 83 -13 16 -26 21 -42 17 -41 -9 -52 7 -45 70 3 32 11 63 16 68
17 17 52 -9 106 -81 28 -37 56 -67 61 -67 15 0 64 38 64 49 0 14 -79 116 -134
173 l-51 52 -109 -104 c-60 -58 -111 -105 -112 -105 -13 0 -34 37 -34 59 0 21
20 47 90 115 49 49 91 94 92 100 3 14 -61 76 -77 75 -5 0 -48 -47 -95 -104
-47 -58 -91 -107 -99 -110 -23 -9 -35 12 -36 61 0 41 -3 48 -30 61 -66 35
-104 78 -118 134 -10 40 10 86 43 97 22 8 29 17 32 49 3 21 1 44 -5 51 -16 21
-46 13 -62 -15 -9 -16 -24 -41 -35 -58 -11 -16 -23 -37 -27 -45 -21 -46 -66
-110 -78 -110 -16 0 -45 43 -45 67 0 10 7 27 15 37 23 30 19 38 -36 74 -80 50
-95 44 -68 -27 15 -41 16 -51 5 -67 -11 -15 -17 -16 -28 -6 -20 16 -80 204
-76 237 4 39 31 54 56 32 10 -9 21 -17 24 -17 8 0 51 70 47 74 -2 2 -26 13
-54 25 -27 12 -60 27 -72 33 -26 13 -53 4 -53 -17 0 -8 -16 -62 -35 -121 -28
-83 -35 -115 -30 -147 6 -37 3 -45 -20 -67 -38 -36 -98 -33 -158 8 -75 50
-117 93 -117 119 0 32 21 29 53 -7 45 -50 101 -82 138 -78 50 5 50 28 0 28
-34 0 -43 4 -50 23 -11 28 -6 37 24 37 13 0 27 6 32 13 9 14 43 108 43 119 0
5 -16 16 -36 25 -34 17 -37 17 -49 0 -22 -31 -51 -20 -80 28 -31 53 -29 79 5
83 24 4 126 -25 144 -40 18 -15 45 -8 51 13 9 27 1 32 -105 65 -47 14 -95 30
-107 35 -36 14 -52 1 -58 -49 -4 -26 -15 -87 -24 -137 -20 -100 -34 -114 -77
-74 -21 20 -25 31 -22 69 3 40 1 45 -19 48 -16 2 -26 -4 -33 -20 -24 -52 -107
-73 -168 -43 -61 31 -142 144 -129 180 5 13 11 14 27 5 11 -6 20 -15 20 -20 0
-18 70 -88 93 -94 13 -3 36 -2 52 3 23 6 30 13 30 32 0 22 -5 24 -54 29 -44 4
-58 10 -74 32 -33 44 -18 58 58 57 71 -2 81 2 72 26 -5 11 -22 15 -70 15 -67
0 -87 10 -87 45 0 31 7 35 70 35 48 0 64 -5 99 -31z m-279 -301 c0 -168 -49
-327 -145 -473 -81 -122 -252 -275 -475 -425 -134 -90 -312 -229 -377 -296
-70 -72 -124 -151 -151 -224 -18 -49 -26 -177 -14 -225 6 -22 15 -57 20 -77 6
-21 28 -74 51 -119 47 -94 45 -89 28 -89 -13 0 -107 94 -171 170 -41 50 -109
157 -131 210 -28 63 -28 201 0 256 26 51 71 111 115 152 38 36 186 152 194
152 3 0 34 20 70 45 37 25 68 45 71 45 3 0 34 20 71 45 36 25 68 45 70 45 3 0
31 19 62 43 31 23 82 59 113 80 148 99 318 269 412 411 74 112 127 235 127
295 0 13 10 39 21 58 30 48 39 29 39 -79z m1382 45 c10 -9 18 -29 18 -45 0
-26 -3 -28 -38 -28 -31 0 -41 5 -48 23 -18 39 -5 60 40 66 5 0 18 -6 28 -16z
m-1512 -27 c0 -34 -79 -153 -170 -257 -137 -156 -361 -336 -690 -554 -282
-186 -381 -266 -464 -375 -65 -86 -81 -131 -81 -230 1 -70 6 -95 27 -140 52
-112 193 -262 377 -401 61 -46 111 -87 111 -91 0 -15 -57 -7 -130 18 -41 14
-86 28 -100 31 -14 3 -34 12 -45 19 -11 8 -25 14 -31 14 -7 0 -48 21 -91 46
-244 144 -353 417 -259 649 16 39 45 95 64 125 58 89 274 299 382 370 12 8 48
33 79 55 86 61 290 195 297 195 2 0 34 21 71 47 69 47 236 161 328 223 100 68
201 149 254 204 46 48 71 67 71 52z m374 -276 c121 -20 194 -36 236 -50 14 -5
64 -21 113 -35 48 -15 90 -31 93 -36 3 -5 12 -9 20 -9 20 0 266 -122 361 -179
39 -23 74 -49 77 -57 6 -16 -3 -29 -148 -204 -94 -113 -100 -121 -151 -185
-22 -27 -65 -80 -95 -117 -30 -37 -75 -94 -100 -127 -52 -69 -63 -76 -95 -59
-185 100 -330 144 -514 154 -111 6 -280 -6 -346 -25 -122 -35 -194 -63 -266
-102 -20 -10 -42 -19 -48 -19 -13 0 -51 37 -121 120 -30 35 -61 71 -68 78 -7
8 -10 18 -7 23 8 12 162 129 170 129 4 0 33 20 65 45 32 25 62 45 65 45 6 0
81 55 95 70 3 3 28 23 55 45 86 67 155 137 216 217 32 42 59 80 59 84 0 4 6
15 14 23 7 9 28 52 46 96 18 44 34 83 37 88 8 13 119 7 237 -13z m-974 -109
c0 -10 -76 -75 -95 -82 -14 -6 -98 -59 -241 -155 -123 -82 -124 -82 -147 -64
-18 15 -20 22 -11 37 15 25 198 134 324 194 58 28 116 56 130 64 31 16 40 18
40 6z m3052 -793 c41 -85 117 -272 142 -350 4 -14 13 -16 54 -11 44 5 52 3 85
-26 84 -74 77 -145 -35 -353 -12 -23 -13 -38 -2 -100 18 -102 18 -467 -1 -588
-15 -97 -27 -120 -67 -120 -14 0 -18 8 -18 35 0 34 -1 35 -38 35 -57 0 -74 23
-67 91 9 79 -4 113 -43 117 -27 3 -35 -2 -52 -30 -23 -38 -22 -52 8 -56 49 -7
53 -57 8 -109 -23 -26 -26 -27 -60 -15 -33 12 -39 11 -66 -8 -34 -24 -60 -21
-60 9 0 12 16 29 46 46 37 22 45 31 40 48 -3 12 2 42 11 67 41 106 160 157
219 93 30 -33 38 -62 30 -114 -5 -31 -3 -41 10 -46 25 -9 32 12 39 124 6 76 4
107 -5 118 -10 12 -41 15 -157 15 -114 0 -145 3 -149 14 -7 18 23 55 55 67 19
8 22 15 19 41 -6 41 9 108 30 134 27 32 55 43 115 45 73 3 79 7 71 56 l-6 41
-105 -2 -105 -3 -27 -46 c-26 -47 -56 -61 -67 -32 -7 18 111 222 135 234 24
13 55 -3 61 -30 4 -18 14 -25 36 -27 48 -5 54 13 34 91 -10 38 -20 70 -22 72
-3 4 -92 -20 -193 -51 -27 -9 -65 -18 -82 -21 -28 -4 -33 -2 -33 15 0 50 16
67 81 86 35 9 82 23 104 31 22 7 52 16 68 19 32 8 36 39 9 74 l-18 24 -65 -27
c-78 -31 -105 -43 -144 -61 -57 -25 -70 -23 -73 15 -2 23 3 40 17 55 20 22 20
24 5 70 -24 71 -14 154 22 183 15 12 39 25 53 28 48 12 72 33 65 59 -7 28 11
66 30 66 7 0 33 -42 58 -92z m-4666 -2 c3 -8 1 -24 -5 -35 -12 -22 -26 -14
169 -104 99 -46 110 -59 71 -86 -34 -25 -48 -26 -87 -7 -58 29 -187 86 -193
86 -12 0 -41 -58 -36 -72 3 -7 60 -30 128 -51 67 -21 128 -40 135 -42 26 -9 9
-57 -28 -76 -23 -13 -35 -27 -36 -42 -5 -124 -151 -284 -170 -187 -6 27 -34
44 -34 20 0 -16 -58 -41 -87 -38 -19 2 -28 -2 -31 -13 -2 -13 10 -17 65 -22
259 -23 257 -22 220 -75 l-22 -33 -80 3 -79 3 -9 -55 c-16 -109 18 -135 104
-81 28 17 54 31 59 31 8 0 20 -24 20 -40 0 -12 -85 -70 -134 -92 -54 -25 -70
-23 -101 14 -27 32 -28 34 -21 136 l7 103 -28 -3 -28 -3 -10 -116 c-11 -123
-21 -149 -61 -149 -22 0 -24 4 -24 53 0 57 34 311 46 340 3 10 17 23 31 28 21
8 23 13 17 49 -5 28 -2 47 10 64 20 31 20 43 2 61 -16 16 13 110 102 325 19
47 44 93 54 103 24 21 57 22 64 3z m611 -50 c27 -23 27 -25 14 -58 -9 -20 -16
-77 -19 -142 -3 -112 6 -158 51 -251 46 -96 91 -153 171 -214 67 -51 205 -123
283 -147 35 -10 65 -24 67 -31 3 -6 0 -54 -5 -105 -23 -214 30 -515 118 -665
l25 -42 -24 -23 c-49 -48 -157 -142 -233 -203 -27 -22 -57 -47 -65 -55 -9 -8
-49 -44 -90 -80 -40 -36 -78 -70 -84 -76 -6 -5 -49 -43 -96 -84 -47 -41 -86
-78 -88 -82 -24 -55 -166 169 -267 417 -42 104 -77 233 -107 395 -18 97 -21
153 -21 365 0 213 3 266 21 360 25 134 62 275 86 330 8 17 22 52 32 80 24 63
97 207 135 263 16 24 29 47 29 52 0 8 16 17 32 19 4 1 20 -10 35 -23z m3487
-64 c62 -110 70 -126 96 -187 12 -27 25 -59 30 -70 78 -179 121 -353 146 -589
16 -160 15 -221 -7 -406 -14 -116 -58 -303 -85 -367 -8 -17 -14 -36 -14 -42 0
-53 -250 -510 -280 -511 -3 0 -21 15 -41 33 -19 17 -77 70 -129 117 -52 47
-121 110 -154 141 -34 31 -97 87 -141 124 -103 88 -188 166 -198 182 -4 7 7
42 27 82 31 64 76 191 76 214 0 6 38 49 84 97 91 95 104 114 136 210 17 51 21
80 17 154 -5 122 -20 159 -92 231 -63 63 -112 85 -190 85 -43 0 -56 23 -29 48
11 10 57 46 104 82 47 35 162 127 255 205 94 77 193 158 220 180 28 22 58 47
68 57 33 33 50 22 101 -70z m-1794 -97 c13 -38 27 -74 32 -79 4 -6 8 -18 8
-28 0 -21 25 -33 90 -42 69 -10 176 -43 267 -82 17 -8 35 -14 41 -14 14 0 109
-52 172 -95 71 -48 240 -204 240 -221 0 -12 -143 -14 -890 -14 -858 0 -890 1
-890 18 0 58 346 312 425 312 9 0 28 6 43 14 33 16 195 61 282 78 l64 13 32
101 c47 151 48 152 84 39z m1178 -467 c86 -41 152 -156 152 -264 0 -56 -20
-133 -53 -204 -21 -46 -178 -211 -271 -286 -156 -124 -246 -218 -284 -294 -22
-45 -42 -124 -42 -167 0 -23 -4 -53 -10 -67 l-10 -26 -639 0 c-374 0 -642 4
-645 9 -11 18 6 41 57 74 118 79 227 122 332 133 97 9 112 18 130 79 18 63 19
138 4 203 -14 57 -31 72 -81 72 -55 0 -225 40 -312 74 -123 47 -262 148 -332
241 -44 57 -96 155 -91 168 3 9 218 12 868 11 500 -1 871 2 882 8 9 5 17 18
17 28 0 11 4 28 9 38 67 136 97 177 144 191 44 14 123 4 175 -21z m-3468 -668
c25 -25 25 -32 0 -55 -19 -18 -21 -17 -55 1 -40 21 -62 10 -50 -26 9 -30 43
-40 100 -29 64 12 85 -4 65 -50 -10 -24 -19 -31 -41 -31 -38 0 -42 -10 -24
-61 26 -72 -13 -139 -80 -139 -49 0 -91 71 -83 140 2 19 -2 26 -20 28 -39 6
-40 -23 -4 -188 8 -38 11 -39 89 -22 24 5 48 14 55 19 7 6 29 14 48 18 19 4
40 11 45 15 19 14 54 18 64 6 5 -6 6 -26 3 -45 -6 -29 -14 -36 -60 -53 -28
-11 -52 -24 -52 -29 0 -6 7 -23 15 -39 11 -21 23 -30 40 -30 32 0 33 -27 4
-87 -15 -31 -27 -43 -43 -43 -23 0 -28 10 -72 124 -22 55 -30 61 -67 47 -27
-11 -37 -44 -17 -56 6 -3 10 -13 10 -22 0 -8 6 -29 14 -46 8 -18 24 -58 37
-89 12 -32 28 -58 36 -58 12 0 51 17 191 82 34 16 67 26 72 23 14 -9 12 -58
-2 -78 -13 -16 -67 -45 -170 -91 -32 -14 -58 -31 -58 -39 0 -8 10 -26 21 -41
19 -25 23 -26 38 -12 10 9 21 16 25 16 4 0 39 21 79 46 114 74 117 75 127 69
6 -3 10 -23 10 -44 0 -38 -10 -53 -51 -76 -94 -53 -159 -100 -159 -115 0 -10
8 -28 18 -40 l18 -23 90 67 c49 36 98 73 109 81 34 26 60 15 63 -26 3 -33 -1
-40 -38 -65 -23 -16 -53 -38 -67 -49 l-25 -20 22 -28 c28 -35 37 -34 45 5 8
32 40 67 63 68 7 0 24 -7 37 -16 31 -20 55 -12 55 19 0 34 23 62 45 54 18 -8
18 -41 -3 -102 -14 -45 11 -103 46 -107 25 -3 27 -6 27 -53 -1 -45 3 -53 29
-70 95 -63 90 -235 -6 -235 -58 0 -129 52 -149 109 -12 33 -27 39 -47 19 -23
-23 -11 -44 69 -123 44 -44 85 -88 90 -97 11 -20 -4 -58 -24 -58 -6 0 -44 32
-84 72 -70 70 -102 86 -68 35 15 -24 15 -27 0 -51 -19 -29 -50 -34 -59 -11 -3
8 -12 15 -21 15 -9 0 -18 -7 -21 -15 -9 -23 -42 -18 -60 10 -20 31 -12 88 24
156 l25 49 -45 58 c-67 85 -179 255 -236 357 -73 129 -76 133 -101 118 -32
-20 -88 -16 -120 8 -61 45 -63 170 -4 274 21 38 24 51 15 68 -17 34 -64 207
-86 317 -17 87 -36 210 -36 239 0 11 11 28 25 37 37 24 55 5 55 -62 0 -29 4
-55 9 -58 5 -3 23 -3 41 0 24 5 31 12 29 28 -3 47 2 66 27 95 22 27 32 31 75
31 36 0 54 -5 69 -20z m4439 -224 c8 -10 22 -13 41 -10 32 7 70 -20 70 -49 0
-26 -61 -50 -94 -37 -26 10 -86 83 -86 106 0 28 43 22 69 -10z m173 -293 c-4
-27 4 -28 45 -8 59 30 89 30 118 1 29 -29 28 -64 -2 -98 -8 -9 -19 -36 -24
-60 -6 -24 -18 -61 -29 -83 -10 -22 -26 -58 -35 -80 -32 -76 -115 -234 -164
-310 -14 -22 -30 -47 -36 -57 -94 -153 -171 -252 -299 -386 -67 -69 -85 -79
-120 -66 -23 9 -20 30 9 52 48 38 41 48 -102 166 -46 37 -83 70 -83 72 0 7 64
44 75 44 6 0 33 -20 60 -45 57 -51 73 -54 102 -21 69 79 53 126 -41 126 -54 0
-76 12 -76 42 0 20 10 22 105 18 90 -3 155 -41 155 -90 0 -31 -37 -91 -81
-132 -30 -28 -37 -52 -19 -63 17 -10 200 209 200 239 0 7 -25 30 -55 50 -31
20 -61 48 -67 62 -10 21 -16 24 -42 18 -17 -3 -35 -10 -41 -15 -12 -12 -62
-11 -70 1 -10 16 14 50 35 50 11 0 39 6 62 13 161 51 159 51 181 29 18 -18 19
-24 7 -52 -11 -27 -11 -32 6 -45 30 -22 42 -18 74 27 49 68 54 63 -135 163
-44 24 -81 48 -83 54 -10 30 78 66 104 42 13 -12 184 -101 194 -101 7 0 50 78
50 92 0 3 -57 35 -126 70 -70 34 -129 69 -131 76 -8 19 39 51 77 52 29 1 39 7
58 37 21 32 21 37 7 53 -20 22 -19 49 3 56 9 3 31 12 47 19 17 8 44 13 60 12
25 -2 29 -6 27 -24z m-2784 -299 c15 -4 32 -10 37 -14 15 -11 138 -46 228 -65
60 -13 113 -16 235 -13 166 5 196 10 357 64 56 19 110 34 121 34 11 0 31 -12
44 -27 13 -16 46 -55 74 -88 28 -33 53 -62 56 -65 3 -3 27 -33 53 -67 26 -34
53 -68 60 -75 15 -16 242 -280 280 -326 15 -19 24 -38 21 -43 -14 -24 -220
-133 -334 -178 -30 -12 -64 -26 -75 -30 -43 -18 -113 -40 -180 -55 -167 -38
-230 -47 -371 -55 -409 -22 -757 49 -1089 221 -140 73 -158 84 -162 96 -4 10
49 81 112 148 5 6 30 35 55 64 49 60 100 117 143 164 16 17 49 58 75 91 42 55
78 97 169 198 22 24 40 36 50 33 8 -3 27 -9 41 -12z m-998 -859 c12 -14 15
-14 30 0 15 14 18 14 30 0 7 -8 10 -25 6 -40 -5 -18 -2 -27 9 -31 8 -4 15 -15
15 -25 0 -14 -7 -19 -28 -19 -21 0 -32 -7 -41 -26 -14 -32 -43 -28 -51 6 -4
18 -14 26 -33 28 -34 4 -37 41 -6 60 12 8 18 19 15 29 -13 33 30 47 54 18z
m2974 -1 c3 -9 6 -25 6 -36 0 -12 7 -26 17 -33 23 -17 10 -45 -21 -45 -18 0
-25 -6 -28 -22 -4 -33 -45 -37 -50 -6 -2 17 -11 24 -31 26 -33 4 -47 30 -24
44 12 6 15 17 10 38 -7 35 18 51 50 31 16 -11 22 -10 35 3 20 20 28 20 36 0z
m-2514 -124 c48 -25 80 -69 88 -122 4 -32 7 -38 16 -27 6 8 24 23 40 33 72 46
211 -38 204 -123 -2 -25 -8 -37 -21 -39 -23 -5 -65 33 -69 61 -4 26 -62 47
-81 28 -9 -9 4 -26 56 -72 61 -55 67 -64 67 -100 0 -109 -91 -149 -204 -88
-61 32 -76 56 -73 114 2 43 5 50 24 53 26 4 63 -33 63 -64 0 -30 61 -60 90
-44 28 15 25 34 -7 56 -47 30 -102 94 -111 127 -6 23 -15 33 -33 35 -33 5 -47
18 -54 53 -7 33 -39 59 -71 59 -55 0 -128 -107 -106 -155 17 -38 55 -52 98
-36 69 25 111 -23 58 -66 -70 -56 -193 -12 -236 83 -17 39 -18 50 -7 82 46
145 158 209 269 152z m2060 -19 c5 -7 151 -126 214 -174 44 -34 45 -51 5 -67
-27 -11 -33 -11 -59 9 -36 26 -40 26 -87 -1 -49 -28 -52 -34 -46 -74 5 -29 2
-35 -28 -53 -19 -12 -38 -19 -44 -18 -9 3 -22 75 -46 256 l-12 95 28 23 c25
22 60 24 75 4z m-236 -87 c19 -7 146 -265 146 -298 0 -24 -42 -41 -69 -27 -11
7 -21 16 -21 22 0 12 -25 69 -82 188 l-41 84 24 18 c28 22 24 20 43 13z
m-1349 -74 c14 -16 16 -25 7 -47 -5 -16 -17 -55 -27 -88 -10 -33 -24 -75 -31
-93 -8 -18 -14 -40 -14 -50 0 -9 -9 -31 -20 -49 -18 -30 -21 -31 -50 -22 -39
14 -44 24 -32 57 6 15 25 74 42 132 46 153 59 180 85 180 12 0 30 -9 40 -20z
m1256 -7 c89 -98 101 -239 24 -300 -35 -28 -103 -57 -159 -67 -31 -6 -37 -4
-46 16 -12 27 -49 166 -61 225 -4 23 -14 51 -21 63 -10 15 -10 25 -2 37 15 24
107 51 180 52 54 1 63 -2 85 -26z m-1065 -28 c102 -13 164 -60 164 -125 0 -29
-37 -79 -66 -90 -27 -11 -31 -32 -9 -50 8 -7 15 -20 15 -29 0 -10 7 -26 15
-37 8 -10 15 -29 15 -41 0 -18 -6 -23 -26 -23 -43 0 -61 17 -101 95 -33 66
-64 97 -80 82 -2 -3 -11 -35 -20 -71 -14 -62 -16 -66 -43 -66 -45 0 -52 18
-40 97 40 262 50 290 94 273 12 -4 49 -11 82 -15z m770 -45 c7 -30 20 -108 29
-173 18 -133 14 -147 -40 -147 -33 0 -33 -1 -128 113 -48 56 -76 74 -62 40 14
-36 24 -147 14 -165 -6 -11 -21 -18 -38 -18 -31 0 -51 31 -51 78 0 15 -7 81
-17 147 -9 67 -14 129 -10 138 4 11 18 17 41 17 31 0 42 -8 91 -66 31 -37 63
-77 72 -90 8 -13 19 -21 24 -18 11 6 2 114 -12 151 -6 17 -3 26 14 38 40 28
59 16 73 -45z m-334 -155 c4 -88 5 -170 3 -181 -5 -25 -31 -34 -61 -23 -18 6
-22 19 -27 85 -12 131 -9 272 6 278 6 3 26 4 42 3 l30 -2 7 -160z"/>
<path d="M2460 6088 c-21 -23 -26 -43 -11 -52 5 -4 36 5 68 18 32 13 66 27 76
30 39 12 14 26 -48 26 -53 0 -68 -4 -85 -22z"/>
<path d="M3005 6016 c-16 -11 -17 -17 -8 -27 16 -16 78 1 78 21 0 20 -46 24
-70 6z"/>
<path d="M2056 5711 c-4 -5 5 -23 19 -39 14 -16 25 -36 25 -43 0 -12 -43 -55
-84 -84 -10 -8 -15 -19 -11 -25 5 -8 17 -2 36 20 24 26 35 31 66 28 53 -4 53
-27 1 -76 -33 -32 -40 -44 -31 -53 9 -9 17 -8 36 4 30 20 87 104 87 130 0 16
-77 119 -105 139 -14 11 -33 10 -39 -1z"/>
<path d="M1532 5458 c2 -6 13 -13 24 -14 10 -1 30 -5 44 -9 l25 -7 -25 21
c-27 22 -74 29 -68 9z"/>
<path d="M4722 5891 c-6 -3 -16 -18 -21 -31 -6 -14 -17 -33 -23 -43 -11 -15
-9 -21 12 -37 26 -19 66 -31 84 -24 6 3 21 19 33 36 16 23 19 36 13 48 -12 23
-84 60 -98 51z"/>
<path d="M5034 5708 c-9 -15 27 -41 39 -29 13 13 1 41 -17 41 -8 0 -18 -5 -22
-12z"/>
<path d="M5116 5634 c-11 -8 -28 -14 -38 -14 -15 0 -16 -3 -6 -25 8 -19 8 -28
-2 -40 -18 -21 -27 -19 -70 15 -44 35 -60 38 -60 10 0 -26 64 -67 118 -76 41
-6 46 -4 83 32 45 44 48 62 17 92 -20 18 -25 19 -42 6z"/>
<path d="M5810 4655 c-14 -8 -33 -14 -42 -15 -18 0 -48 -26 -48 -41 0 -17 74
-79 95 -79 12 0 30 7 41 15 10 8 27 15 37 15 27 0 29 22 7 73 -23 51 -43 59
-90 32z"/>
<path d="M6094 4298 c3 -18 11 -66 17 -105 19 -116 59 -91 59 35 0 63 -2 71
-25 86 -41 27 -58 21 -51 -16z"/>
<path d="M5954 3840 c-12 -5 -24 -12 -27 -17 -8 -13 21 -73 36 -73 13 0 47 64
47 88 0 14 -25 15 -56 2z"/>
<path d="M6042 3788 c-13 -32 -18 -56 -13 -61 12 -12 57 -1 63 15 8 24 -4 98
-16 98 -7 0 -22 -23 -34 -52z"/>
<path d="M1115 4420 c-21 -41 -19 -50 11 -50 58 0 113 -57 129 -134 11 -53 30
-12 28 61 -1 75 -22 113 -69 127 -16 4 -37 12 -46 17 -28 14 -37 11 -53 -21z"/>
<path d="M1093 4283 c-17 -6 -16 -38 1 -53 20 -16 56 -9 70 13 18 30 -30 57
-71 40z"/>
<path d="M4540 3952 c-40 -39 -50 -55 -50 -81 0 -74 -125 -242 -246 -332 -128
-94 -408 -188 -561 -189 -80 0 -93 -18 -93 -125 0 -89 17 -154 51 -189 14 -15
34 -20 83 -22 129 -4 263 -46 371 -115 66 -42 80 -38 90 23 14 85 45 161 95
228 49 66 205 219 343 336 81 68 118 119 146 199 55 157 -17 315 -144 315 -28
0 -44 -9 -85 -48z m171 -25 c28 -38 52 -125 45 -162 -9 -48 -34 -105 -46 -105
-6 0 -10 21 -10 48 0 26 -9 87 -19 137 -11 49 -17 93 -14 97 8 14 28 8 44 -15z"/>
<path d="M1161 3186 c-16 -19 -1 -71 20 -71 10 0 13 10 11 35 -3 43 -15 56
-31 36z"/>
<path d="M1064 2675 c-15 -83 16 -155 66 -155 30 0 31 27 3 81 -14 29 -29 63
-32 77 -11 39 -29 38 -37 -3z"/>
<path d="M1426 2232 c-3 -5 4 -26 16 -48 26 -48 128 -182 143 -188 11 -4 154
117 165 139 3 6 -10 11 -27 13 -33 3 -36 8 -45 67 -5 30 -36 31 -50 1 -9 -20
-9 -38 0 -76 14 -59 8 -80 -22 -79 -15 0 -41 26 -86 86 -64 86 -83 103 -94 85z"/>
<path d="M1770 1986 c0 -24 60 -77 84 -74 36 5 32 43 -7 67 -39 24 -77 28 -77
7z"/>
<path d="M1556 1839 c-6 -34 0 -53 15 -44 11 8 12 75 0 75 -5 0 -11 -14 -15
-31z"/>
<path d="M5927 2843 c-13 -13 -7 -24 20 -34 33 -12 53 2 33 26 -13 15 -42 20
-53 8z"/>
<path d="M5808 2777 c-14 -12 -48 -62 -48 -71 0 -2 28 -18 61 -35 60 -30 79
-32 79 -9 0 6 7 19 16 29 23 26 13 42 -44 72 -39 21 -53 24 -64 14z"/>
<path d="M4606 1481 c-4 -5 -2 -21 4 -36 8 -22 13 -24 30 -15 25 13 25 22 2
43 -21 19 -28 21 -36 8z"/>
<path d="M4150 1377 c-19 -7 -34 -16 -32 -22 2 -5 5 -21 8 -35 2 -14 12 -50
20 -80 9 -30 18 -61 20 -69 5 -17 60 -7 86 16 34 31 18 150 -26 185 -25 20
-30 21 -76 5z"/>
<path d="M3157 1323 c-10 -10 -8 -51 2 -57 5 -4 29 -9 53 -12 47 -7 82 13 72
40 -9 23 -110 46 -127 29z"/>
</g>
</svg>
