<svg id="svg" version="1.1" xmlns="http://www.w3.org/2000/svg" xmlns:xlink="http://www.w3.org/1999/xlink" width="70" height="92" viewBox="70, 10, 235,380.7272727272727"><g id="svgg"><path id="path0" d="M169.833 31.193 C 169.423 31.850,165.038 32.943,160.089 33.624 C 149.157 35.128,146.463 37.942,147.839 46.419 C 149.486 56.571,144.397 64.102,136.818 62.726 C 132.238 61.895,130.909 62.285,130.909 64.463 C 130.909 66.008,130.023 67.273,128.939 67.273 C 127.856 67.273,127.301 66.279,127.706 65.064 C 128.479 62.745,119.905 54.545,116.706 54.545 C 111.424 54.545,97.967 62.147,96.522 65.947 C 95.636 68.277,91.556 72.404,87.456 75.118 C 79.760 80.211,77.824 82.539,82.907 80.588 C 85.465 79.607,85.520 79.970,83.362 83.610 C 81.430 86.870,81.391 87.922,83.182 88.571 C 86.633 89.821,85.900 94.236,81.818 96.786 C 79.818 98.035,78.182 100.087,78.182 101.346 C 78.182 104.145,75.208 104.362,73.553 101.684 C 72.889 100.610,74.156 97.804,76.368 95.450 C 78.580 93.095,80.033 90.098,79.597 88.790 C 79.129 87.388,76.739 89.532,73.775 94.010 L 68.746 101.609 73.559 107.919 C 76.207 111.390,79.557 114.684,81.004 115.240 C 82.452 115.795,83.636 117.342,83.636 118.677 C 83.636 120.012,86.580 123.924,90.179 127.371 L 96.721 133.636 99.491 129.545 C 105.720 120.349,107.416 126.633,101.951 138.656 C 94.623 154.779,96.430 177.308,105.974 188.808 C 108.460 191.804,111.924 197.670,114.355 203.005 C 115.336 205.158,117.008 207.456,118.070 208.113 C 119.131 208.769,120.000 213.627,120.000 218.909 C 120.000 224.191,121.242 232.529,122.760 237.438 C 127.181 251.737,123.197 275.046,115.858 277.816 C 112.953 278.913,110.965 280.466,111.439 281.268 C 112.816 283.600,109.426 290.909,106.968 290.909 C 105.225 290.909,105.212 290.424,106.909 288.727 C 108.109 287.527,109.091 285.709,109.091 284.686 C 109.091 280.772,103.070 291.640,102.737 296.154 C 102.125 304.478,101.885 305.013,98.355 305.936 C 95.783 306.609,94.365 309.585,92.839 317.512 C 91.710 323.380,89.988 329.614,89.014 331.364 C 87.817 333.513,87.871 334.545,89.183 334.545 C 90.250 334.545,90.596 335.399,89.951 336.443 C 89.306 337.487,89.574 339.328,90.547 340.534 C 91.520 341.740,92.889 346.202,93.590 350.449 C 95.295 360.786,99.855 365.933,109.361 368.248 C 114.879 369.591,117.452 371.239,117.906 373.721 C 119.852 384.336,118.456 384.155,190.939 383.239 C 261.886 382.343,264.230 382.029,265.995 373.207 C 266.801 369.175,268.929 367.294,276.126 364.254 C 283.431 361.168,285.831 359.014,288.238 353.384 C 294.887 337.830,289.934 300.085,281.234 300.012 C 280.412 300.006,279.889 298.159,280.071 295.909 C 280.821 286.651,275.345 279.853,265.901 278.318 C 260.124 277.379,259.066 276.424,257.993 271.176 C 255.842 260.657,252.523 259.768,253.875 270.073 C 255.149 279.789,253.222 279.904,249.684 270.324 L 247.549 264.545 247.411 269.665 C 247.238 276.079,250.208 281.818,253.700 281.818 C 256.930 281.818,257.018 284.953,253.944 290.488 L 251.654 294.613 246.878 289.579 C 244.007 286.553,240.915 279.926,239.127 272.965 C 237.490 266.595,234.358 258.957,232.167 255.991 C 226.730 248.633,225.829 194.505,231.224 199.380 C 242.134 209.237,244.399 215.752,244.140 236.520 C 244.004 247.403,244.535 256.704,245.319 257.189 C 247.284 258.404,249.384 228.839,247.964 219.954 C 247.262 215.567,247.524 212.727,248.631 212.727 C 251.639 212.727,252.766 222.973,251.905 242.478 C 251.216 258.092,251.367 259.519,252.889 251.818 C 253.878 246.818,254.940 235.773,255.249 227.273 C 255.751 213.486,256.568 210.346,262.824 198.182 C 279.078 166.578,281.118 148.650,270.628 129.611 C 268.857 126.397,268.155 123.306,269.067 122.742 C 269.980 122.178,271.615 123.376,272.700 125.404 C 274.604 128.962,281.818 130.674,281.818 127.568 C 281.818 126.730,287.575 120.079,294.611 112.787 C 306.838 100.116,307.278 99.359,304.569 95.674 C 297.436 85.971,294.603 80.738,295.375 78.686 C 296.450 75.828,289.459 70.909,284.320 70.909 C 281.710 70.909,279.061 68.708,276.552 64.456 C 270.488 54.179,252.735 49.489,249.713 57.365 C 247.739 62.510,229.091 67.560,229.091 62.950 C 229.091 61.572,227.864 59.427,226.364 58.182 C 224.864 56.937,223.624 53.769,223.609 51.141 C 223.569 44.163,219.112 32.483,215.776 30.616 C 212.542 28.807,170.998 29.328,169.833 31.193 M199.252 39.536 C 197.265 41.522,195.903 38.364,197.329 35.078 C 198.682 31.963,198.780 31.966,199.533 35.142 C 199.967 36.971,199.840 38.948,199.252 39.536 M174.545 39.198 C 174.545 40.639,173.815 41.818,172.922 41.818 C 170.915 41.818,168.960 37.101,170.379 35.682 C 171.970 34.090,174.545 36.264,174.545 39.198 M180.635 37.214 C 181.198 38.682,180.877 40.367,179.921 40.958 C 178.964 41.549,178.182 41.642,178.182 41.165 C 178.182 40.688,177.685 39.003,177.078 37.421 C 176.471 35.840,176.793 34.545,177.793 34.545 C 178.793 34.545,180.072 35.747,180.635 37.214 M193.061 39.273 C 193.502 42.897,195.231 44.545,200.472 46.337 C 212.522 50.457,220.161 64.254,213.874 70.542 C 209.430 74.986,204.085 69.982,208.300 65.324 C 211.392 61.907,210.457 54.859,206.573 52.301 C 199.839 47.864,190.071 55.683,191.907 64.039 C 192.903 68.574,192.522 69.091,188.182 69.091 C 183.780 69.091,183.452 68.613,184.519 63.755 C 185.840 57.741,180.720 50.909,174.893 50.909 C 166.547 50.909,159.613 64.743,166.992 66.673 C 170.467 67.581,170.587 68.085,168.369 72.470 C 162.933 83.219,162.926 91.116,168.349 95.439 C 171.089 97.624,172.578 99.878,171.657 100.447 C 165.552 104.220,157.977 86.984,162.505 79.622 C 163.985 77.216,163.525 75.571,160.461 72.309 C 151.723 63.007,162.092 48.833,180.248 45.261 C 190.422 43.259,191.098 42.818,190.097 38.829 C 189.505 36.473,189.801 34.545,190.754 34.545 C 191.706 34.545,192.745 36.673,193.061 39.273 M214.545 36.618 C 214.545 37.757,213.244 39.641,211.654 40.804 C 209.011 42.737,209.011 43.125,211.654 45.318 C 214.121 47.366,214.554 47.218,214.603 44.314 C 214.658 41.081,214.800 41.092,217.402 44.537 C 218.910 46.532,219.921 49.862,219.649 51.938 C 219.377 54.013,220.421 57.699,221.969 60.128 C 225.882 66.268,226.583 88.772,222.906 90.183 C 221.374 90.771,220.693 92.418,221.314 94.035 C 222.042 95.932,221.556 96.577,219.835 95.998 C 217.061 95.065,215.962 78.645,218.566 77.036 C 220.643 75.752,220.329 64.055,218.182 62.727 C 217.182 62.109,216.364 59.253,216.364 56.380 C 216.364 52.601,214.787 50.034,210.663 47.098 C 205.593 43.487,205.291 42.798,207.936 40.864 C 211.741 38.082,211.690 36.834,207.727 35.799 C 205.770 35.287,206.469 34.886,209.545 34.756 C 212.295 34.640,214.545 35.478,214.545 36.618 M167.505 39.440 C 169.021 41.310,169.141 42.001,167.811 41.202 C 164.028 38.933,156.364 41.912,156.364 45.652 C 156.364 49.519,159.209 50.300,160.614 46.818 C 161.238 45.273,161.564 45.419,161.634 47.273 C 161.691 48.773,160.244 51.942,158.419 54.315 L 155.101 58.629 153.101 50.749 C 150.881 42.002,152.219 38.904,158.768 37.629 C 160.946 37.206,163.241 36.747,163.868 36.611 C 164.496 36.475,166.132 37.748,167.505 39.440 M155.260 63.633 C 153.886 66.903,153.910 68.043,155.530 76.642 C 156.833 83.553,150.228 91.266,148.307 85.078 C 145.184 75.024,146.457 66.877,149.793 75.570 C 150.393 77.133,151.769 77.865,152.851 77.196 C 154.131 76.405,153.500 74.576,151.046 71.964 C 147.478 68.165,145.969 60.091,148.378 57.683 C 150.441 55.620,156.445 60.811,155.260 63.633 M263.756 58.246 C 265.690 59.281,267.273 61.326,267.273 62.791 C 267.273 64.256,268.568 65.455,270.152 65.455 C 273.905 65.455,272.443 69.820,268.428 70.599 C 266.729 70.928,261.274 75.263,256.306 80.231 C 247.605 88.931,244.442 88.686,249.259 79.685 C 250.696 77.001,250.696 75.423,249.259 73.987 C 241.978 66.705,254.387 53.231,263.756 58.246 M120.383 61.364 C 124.172 65.724,125.954 74.022,123.435 75.579 C 122.217 76.332,121.781 79.656,122.346 83.872 C 123.178 90.071,122.844 90.909,119.545 90.909 C 115.915 90.909,115.901 91.021,119.091 94.545 C 122.298 98.089,122.267 98.182,117.858 98.182 C 112.212 98.182,110.373 96.473,112.831 93.511 C 114.150 91.922,114.104 90.851,112.679 89.970 C 111.304 89.120,111.968 87.289,114.709 84.372 C 118.900 79.910,117.559 70.909,112.702 70.909 C 111.385 70.909,111.417 72.097,112.803 74.688 C 114.937 78.674,114.012 83.636,111.136 83.636 C 110.199 83.636,109.861 81.991,110.387 79.981 C 111.128 77.148,110.100 75.892,105.817 74.399 C 97.135 71.373,97.454 68.161,106.945 63.061 C 117.405 57.440,117.016 57.489,120.383 61.364 M176.364 63.859 C 176.364 66.171,169.532 65.821,168.056 63.433 C 166.274 60.550,171.208 57.985,174.030 60.327 C 175.313 61.392,176.364 62.981,176.364 63.859 M206.856 61.477 C 207.258 62.683,205.904 63.636,203.788 63.636 C 200.011 63.636,198.879 61.727,201.250 59.356 C 202.934 57.672,205.970 58.820,206.856 61.477 M243.636 69.091 C 243.636 70.091,242.127 70.909,240.282 70.909 C 238.437 70.909,235.430 72.564,233.600 74.586 C 230.284 78.250,230.295 78.253,236.896 75.495 C 245.095 72.069,245.594 72.066,244.294 75.455 C 243.718 76.955,242.166 78.182,240.844 78.182 C 239.523 78.182,237.162 79.461,235.598 81.025 C 229.755 86.869,226.692 78.779,231.921 71.314 C 234.752 67.272,243.636 65.586,243.636 69.091 M136.881 74.371 C 140.498 80.495,140.970 83.516,137.818 80.364 C 136.618 79.164,134.212 78.182,132.471 78.182 C 128.615 78.182,126.597 75.294,127.964 71.731 C 129.586 67.504,133.511 68.666,136.881 74.371 M204.827 75.376 C 204.235 76.919,202.371 78.182,200.684 78.182 C 197.886 78.182,197.907 77.863,200.919 74.534 C 204.537 70.537,206.520 70.964,204.827 75.376 M287.709 75.242 C 290.508 76.121,290.332 76.776,286.178 80.929 C 282.858 84.249,280.840 85.088,279.284 83.797 C 278.074 82.792,275.378 82.416,273.292 82.962 C 267.189 84.558,266.273 80.066,271.743 75.365 C 275.487 72.149,277.622 71.504,280.610 72.689 C 282.774 73.547,285.969 74.696,287.709 75.242 M100.532 76.818 C 106.373 79.530,106.729 81.169,101.818 82.727 C 97.071 84.234,97.217 85.987,102.273 88.205 C 109.033 91.171,107.798 116.300,100.581 122.648 C 94.554 127.950,93.469 128.192,92.070 124.545 C 91.383 122.755,92.128 121.818,94.239 121.818 C 101.285 121.818,104.609 111.853,99.091 107.273 C 96.907 105.460,96.364 105.476,96.364 107.353 C 96.364 108.642,95.937 109.270,95.415 108.749 C 93.983 107.317,97.016 100.213,99.045 100.245 C 100.020 100.260,101.111 99.393,101.470 98.318 C 102.090 96.456,97.331 95.478,90.455 96.054 C 86.427 96.392,86.373 93.099,90.333 88.723 C 93.169 85.589,93.175 85.123,90.411 82.359 C 87.647 79.595,87.656 79.205,90.533 77.019 C 94.420 74.066,94.598 74.062,100.532 76.818 M191.909 79.511 C 189.572 85.600,204.660 86.299,211.364 80.412 C 213.114 78.876,214.545 78.496,214.545 79.570 C 214.545 80.643,211.547 83.375,207.882 85.640 L 201.218 89.759 193.930 85.767 L 186.643 81.776 182.575 85.598 C 180.337 87.700,177.001 89.066,175.162 88.633 C 172.361 87.973,172.606 87.520,176.674 85.841 C 180.233 84.371,181.281 82.885,180.599 80.275 C 179.795 77.201,180.569 76.740,186.253 76.901 C 190.944 77.034,192.571 77.785,191.909 79.511 M173.743 80.851 C 175.685 82.319,176.406 83.547,175.348 83.579 C 174.289 83.610,171.834 82.435,169.893 80.967 C 167.952 79.499,167.230 78.271,168.289 78.240 C 169.348 78.208,171.802 79.383,173.743 80.851 M133.719 84.463 C 138.237 88.981,139.697 94.545,136.364 94.545 C 135.364 94.545,134.545 93.450,134.545 92.110 C 134.545 90.771,132.500 88.743,130.000 87.604 C 127.500 86.464,125.455 84.288,125.455 82.766 C 125.455 78.726,128.635 79.379,133.719 84.463 M260.542 85.916 C 258.498 88.162,257.264 91.227,257.800 92.727 C 258.635 95.067,258.343 95.100,255.750 92.959 C 251.856 89.745,251.862 89.719,257.558 84.441 C 263.404 79.023,265.755 80.186,260.542 85.916 M144.740 84.694 C 144.133 86.276,143.611 88.935,143.581 90.603 C 143.530 93.430,143.406 93.431,141.760 90.611 C 139.799 87.251,141.199 81.818,144.025 81.818 C 145.025 81.818,145.347 83.112,144.740 84.694 M243.625 84.091 C 243.619 85.341,241.105 87.791,238.039 89.536 C 232.790 92.523,232.499 92.526,233.066 89.582 C 233.398 87.862,235.707 85.424,238.198 84.163 C 243.792 81.333,243.639 81.335,243.625 84.091 M210.686 94.683 C 207.178 96.851,206.688 95.437,209.419 91.025 C 211.456 87.736,211.914 87.608,212.452 90.175 C 212.800 91.839,212.006 93.868,210.686 94.683 M283.065 91.226 C 288.980 96.783,288.529 97.261,277.271 97.369 C 268.242 97.456,267.273 97.088,267.273 93.581 C 267.273 86.034,276.132 84.713,283.065 91.226 M301.818 97.590 C 301.818 100.812,299.938 100.571,294.911 96.703 C 292.074 94.520,291.127 92.457,291.962 90.281 C 293.379 86.588,301.818 92.845,301.818 97.590 M157.469 93.769 C 159.254 100.881,155.921 102.607,150.842 97.201 C 147.147 93.269,146.880 92.270,149.139 90.841 C 153.667 87.978,156.242 88.883,157.469 93.769 M263.636 93.612 C 263.636 97.830,252.084 105.418,249.539 102.872 C 247.890 101.223,251.235 98.182,254.698 98.182 C 256.837 98.182,258.966 96.357,260.000 93.636 C 262.201 87.846,263.636 87.837,263.636 93.612 M192.727 91.669 C 192.727 92.088,193.224 93.724,193.831 95.306 C 194.448 96.915,194.001 98.182,192.814 98.182 C 191.602 98.182,191.279 97.209,192.060 95.909 C 193.001 94.343,192.476 94.406,190.372 96.113 C 186.761 99.041,181.818 97.643,181.818 93.693 C 181.818 91.812,183.587 90.909,187.273 90.909 C 190.273 90.909,192.727 91.251,192.727 91.669 M243.577 96.474 C 241.444 100.459,239.013 100.997,237.102 97.906 C 235.652 95.560,241.485 90.488,243.909 91.987 C 244.765 92.515,244.615 94.535,243.577 96.474 M133.182 97.243 C 138.860 102.241,139.356 103.636,135.455 103.636 C 133.955 103.636,132.727 102.914,132.727 102.030 C 132.727 101.147,131.091 99.996,129.091 99.473 C 127.091 98.950,125.455 97.218,125.455 95.625 C 125.455 91.674,127.291 92.059,133.182 97.243 M182.059 99.015 C 187.790 103.837,191.084 103.569,197.555 97.755 C 201.441 94.264,201.485 94.267,202.706 98.114 C 204.378 103.384,200.463 107.783,195.261 106.478 C 193.006 105.912,189.006 106.268,186.371 107.270 C 179.548 109.864,174.545 106.762,174.545 99.936 C 174.545 93.394,175.273 93.305,182.059 99.015 M144.793 103.086 C 144.048 103.831,142.677 103.237,141.747 101.766 C 138.948 97.339,139.787 95.372,143.074 98.658 C 144.764 100.348,145.538 102.341,144.793 103.086 M89.036 101.921 C 86.840 106.024,83.133 108.014,79.774 106.895 C 78.584 106.498,80.398 104.389,83.805 102.208 C 91.436 97.324,91.498 97.321,89.036 101.921 M227.323 108.997 C 224.885 113.552,226.868 113.931,230.196 109.545 C 232.396 106.648,232.617 106.800,232.669 111.256 C 232.701 113.947,231.909 116.655,230.909 117.273 C 227.968 119.090,228.829 122.308,231.937 121.115 C 234.186 120.252,234.524 120.880,233.551 124.102 C 231.741 130.095,229.577 131.745,228.557 127.910 C 223.543 109.068,223.428 108.063,225.662 102.699 C 227.738 97.714,227.979 97.598,228.621 101.270 C 229.005 103.468,228.421 106.946,227.323 108.997 M221.196 102.820 C 223.009 107.544,214.505 115.284,211.168 111.947 C 207.308 108.087,211.786 102.410,215.958 105.872 C 218.310 107.825,218.520 107.566,217.412 104.077 C 215.939 99.434,219.450 98.268,221.196 102.820 M115.792 105.771 C 118.106 107.946,119.967 111.423,119.927 113.499 C 119.862 116.872,119.579 116.765,117.255 112.488 C 115.825 109.857,113.403 107.223,111.873 106.636 C 109.124 105.581,107.925 101.818,110.337 101.818 C 111.023 101.818,113.477 103.597,115.792 105.771 M137.909 110.208 C 138.259 110.460,137.997 111.555,137.327 112.639 C 136.519 113.947,134.318 113.336,130.794 110.827 C 127.871 108.746,124.656 107.552,123.649 108.174 C 121.556 109.467,121.379 108.714,122.867 104.838 C 123.814 102.369,130.218 104.655,137.909 110.208 M164.636 107.273 C 166.086 107.273,167.273 107.964,167.273 108.809 C 167.273 110.651,160.226 117.268,159.400 116.201 C 153.028 107.967,150.537 103.104,153.217 104.133 C 154.884 104.773,156.796 104.408,157.466 103.323 C 158.261 102.037,159.261 102.381,160.342 104.312 C 161.253 105.940,163.185 107.273,164.636 107.273 M242.052 109.264 C 236.754 114.199,234.963 112.408,239.014 106.226 C 241.302 102.734,242.701 101.974,244.159 103.432 C 245.617 104.890,245.044 106.476,242.052 109.264 M274.545 104.182 C 274.545 105.482,273.619 107.472,272.486 108.605 C 269.593 111.498,271.912 116.364,276.184 116.364 C 278.201 116.364,280.276 118.005,280.953 120.137 C 282.839 126.081,280.769 126.223,273.762 120.632 C 266.984 115.224,265.184 108.271,269.455 104.000 C 272.310 101.145,274.545 101.225,274.545 104.182 M263.636 106.290 C 263.636 109.586,253.872 118.890,253.038 116.388 C 252.379 114.411,260.051 103.901,262.273 103.737 C 263.023 103.682,263.636 104.831,263.636 106.290 M147.273 116.282 C 147.273 117.927,146.291 120.255,145.091 121.455 C 143.891 122.655,143.528 123.636,144.285 123.636 C 145.041 123.636,144.379 125.886,142.813 128.636 C 141.248 131.386,139.267 136.909,138.412 140.909 C 136.903 147.969,136.804 148.049,135.014 143.636 C 133.995 141.126,133.885 138.820,134.767 138.485 C 135.645 138.152,136.364 135.035,136.364 131.559 C 136.364 127.647,137.084 125.685,138.255 126.409 C 139.482 127.167,139.730 125.921,138.962 122.859 C 137.957 118.855,138.269 118.329,141.022 119.386 C 143.678 120.405,144.007 119.995,142.837 117.134 C 138.971 107.686,139.086 106.060,143.351 109.827 C 145.508 111.732,147.273 114.637,147.273 116.282 M127.273 113.636 C 128.518 115.136,130.615 116.364,131.934 116.364 C 134.959 116.364,136.932 119.428,135.450 121.825 C 134.243 123.778,121.818 115.289,121.818 112.511 C 121.818 110.015,124.773 110.625,127.273 113.636 M249.091 114.444 C 249.091 116.272,239.998 122.422,238.908 121.332 C 237.505 119.929,245.705 110.849,247.418 111.908 C 248.338 112.477,249.091 113.618,249.091 114.444 M284.545 114.545 C 288.720 119.159,287.148 119.161,279.589 114.552 C 274.660 111.547,274.291 110.922,277.445 110.916 C 279.540 110.912,282.735 112.545,284.545 114.545 M116.022 118.108 C 120.206 123.768,121.253 129.091,118.182 129.091 C 117.182 129.091,116.364 127.503,116.364 125.562 C 116.364 123.621,115.550 121.530,114.555 120.915 C 111.936 119.296,108.685 112.727,110.503 112.727 C 111.350 112.727,113.834 115.149,116.022 118.108 M176.336 118.019 C 176.202 123.170,172.462 124.238,169.220 120.051 C 167.305 117.579,166.113 114.951,166.571 114.210 C 167.466 112.762,176.382 116.240,176.336 118.019 M209.091 116.000 C 209.091 119.372,205.842 123.636,203.273 123.636 C 201.029 123.636,201.552 117.357,204.000 114.909 C 207.118 111.791,209.091 112.213,209.091 116.000 M195.306 117.467 C 198.447 118.673,199.298 123.636,196.364 123.636 C 195.364 123.636,193.932 123.647,193.182 123.660 C 192.432 123.672,191.725 122.036,191.612 120.023 C 191.381 115.920,191.342 115.946,195.306 117.467 M186.090 120.851 C 186.653 122.319,186.296 124.026,185.295 124.644 C 183.316 125.867,178.182 122.355,178.182 119.777 C 178.182 117.085,185.000 118.011,186.090 120.851 M262.705 121.364 C 261.979 123.114,261.346 125.568,261.299 126.818 C 261.178 129.981,258.182 129.687,258.182 126.512 C 258.182 122.415,260.227 118.182,262.207 118.182 C 263.230 118.182,263.448 119.574,262.705 121.364 M128.519 123.953 C 132.899 128.068,133.898 131.789,131.087 133.526 C 129.735 134.362,121.818 123.497,121.818 120.805 C 121.818 118.954,124.578 120.251,128.519 123.953 M250.909 122.981 C 250.909 123.621,249.479 125.191,247.730 126.469 C 243.496 129.565,245.939 131.751,250.753 129.174 C 255.746 126.502,255.830 129.611,250.934 135.836 C 247.617 140.053,247.235 140.150,246.256 137.032 C 245.669 135.164,244.384 132.140,243.399 130.312 C 242.169 128.027,242.280 126.180,243.755 124.403 C 245.911 121.804,250.909 120.811,250.909 122.981 M111.670 127.513 C 111.055 128.507,111.960 130.874,113.679 132.774 C 115.760 135.074,116.317 137.314,115.345 139.478 C 114.542 141.265,113.830 144.698,113.761 147.106 C 113.692 149.514,112.483 151.876,111.074 152.354 C 109.284 152.961,108.867 152.297,109.690 150.153 C 110.338 148.464,109.556 145.080,107.952 142.632 C 104.941 138.037,106.690 136.508,110.545 140.364 C 113.880 143.698,113.367 139.030,109.800 133.586 C 106.792 128.996,107.602 122.502,110.926 124.556 C 111.949 125.188,112.284 126.519,111.670 127.513 M163.636 128.118 C 163.636 130.445,158.493 134.545,155.574 134.545 C 153.324 134.545,154.731 130.260,157.727 127.986 C 161.903 124.815,163.636 124.854,163.636 128.118 M174.505 130.455 C 174.425 133.168,167.490 140.823,166.242 139.575 C 164.696 138.029,170.260 129.091,172.769 129.091 C 173.746 129.091,174.527 129.705,174.505 130.455 M203.636 142.132 C 203.636 144.595,202.107 143.732,197.433 138.632 C 194.021 134.909,191.656 131.172,192.178 130.328 C 193.601 128.025,203.636 138.363,203.636 142.132 M209.165 133.069 C 212.124 135.257,214.545 137.695,214.545 138.487 C 214.545 140.574,203.108 133.869,202.243 131.276 C 201.180 128.086,203.095 128.582,209.165 133.069 M226.170 131.970 C 226.850 133.741,226.444 134.572,225.115 134.129 C 222.397 133.223,220.901 129.091,223.290 129.091 C 224.267 129.091,225.563 130.387,226.170 131.970 M236.136 134.844 C 234.014 138.695,233.729 138.772,233.082 135.672 C 232.690 133.792,233.449 131.587,234.768 130.771 C 238.297 128.591,238.783 130.041,236.136 134.844 M267.273 132.835 C 267.273 134.894,266.455 136.073,265.455 135.455 C 264.455 134.837,263.636 133.152,263.636 131.711 C 263.636 130.270,264.455 129.091,265.455 129.091 C 266.455 129.091,267.273 130.776,267.273 132.835 M127.169 136.612 C 130.958 141.737,131.084 142.485,128.410 143.981 C 126.398 145.107,125.779 147.025,126.500 149.898 C 127.087 152.236,126.650 154.716,125.528 155.409 C 124.406 156.102,123.964 158.168,124.545 160.000 C 125.127 161.832,124.703 163.886,123.604 164.566 C 122.425 165.294,122.081 167.968,122.765 171.082 C 123.487 174.367,123.183 176.364,121.963 176.364 C 120.883 176.364,120.000 175.165,120.000 173.700 C 120.000 172.236,118.364 170.161,116.364 169.091 C 114.364 168.021,112.727 165.946,112.727 164.481 C 112.727 161.366,115.606 160.940,117.371 163.795 C 118.240 165.201,119.189 165.166,120.660 163.672 C 122.208 162.101,121.928 160.983,119.545 159.223 C 115.126 155.958,115.433 152.187,120.000 153.636 C 124.407 155.035,125.028 150.691,120.909 147.273 C 117.009 144.036,117.542 141.370,121.818 142.727 C 126.094 144.084,126.627 141.419,122.727 138.182 C 119.833 135.780,118.995 130.909,121.476 130.909 C 122.288 130.909,124.850 133.476,127.169 136.612 M185.455 133.533 C 185.455 136.063,178.859 141.818,175.959 141.818 C 173.541 141.818,174.404 137.715,177.555 134.234 C 181.154 130.257,185.455 129.875,185.455 133.533 M221.157 137.631 C 220.412 138.376,219.041 137.782,218.111 136.311 C 215.311 131.884,216.151 129.917,219.437 133.203 C 221.128 134.894,221.901 136.886,221.157 137.631 M152.727 136.256 C 152.727 138.463,149.123 140.672,145.032 140.974 C 140.597 141.300,141.008 139.445,145.909 137.018 C 151.294 134.351,152.727 134.191,152.727 136.256 M260.000 135.766 C 260.000 136.437,258.693 138.431,257.095 140.197 C 255.497 141.963,254.727 144.277,255.384 145.340 C 257.250 148.360,259.485 147.620,260.527 143.636 C 261.590 139.572,265.455 138.638,265.455 142.445 C 265.455 148.146,258.529 151.787,254.545 148.182 C 250.124 144.180,250.003 142.197,253.918 137.870 C 256.933 134.539,260.000 133.477,260.000 135.766 M240.846 139.545 C 240.098 141.295,239.099 144.977,238.627 147.727 C 238.155 150.477,237.044 152.727,236.157 152.727 C 233.770 152.727,234.203 144.135,236.801 139.975 C 239.585 135.518,242.711 135.185,240.846 139.545 M161.758 139.545 C 161.649 142.007,154.481 149.632,153.345 148.496 C 151.921 147.072,157.693 138.182,160.042 138.182 C 161.019 138.182,161.791 138.795,161.758 139.545 M197.641 143.993 C 203.452 149.626,205.442 154.545,201.909 154.545 C 200.958 154.545,199.526 153.503,198.727 152.229 C 197.927 150.955,195.049 148.499,192.331 146.771 C 189.235 144.802,187.780 142.612,188.435 140.905 C 189.899 137.090,190.847 137.408,197.641 143.993 M229.091 142.727 C 229.091 144.109,228.146 145.824,226.992 146.537 C 225.691 147.341,225.386 147.036,226.190 145.735 C 226.904 144.581,226.669 143.636,225.669 143.636 C 224.669 143.636,223.345 144.455,222.727 145.455 C 221.003 148.244,218.182 147.613,218.182 144.438 C 218.182 142.879,218.907 142.052,219.794 142.600 C 220.681 143.148,222.410 142.387,223.636 140.909 C 226.131 137.903,229.091 138.890,229.091 142.727 M185.455 146.407 C 185.455 147.813,183.818 149.839,181.818 150.909 C 179.818 151.979,178.182 154.054,178.182 155.519 C 178.182 156.983,177.364 158.182,176.364 158.182 C 175.364 158.182,174.545 156.545,174.545 154.545 C 174.545 152.545,175.232 150.909,176.072 150.909 C 176.911 150.909,178.551 148.818,179.716 146.261 C 181.850 141.577,185.455 141.668,185.455 146.407 M213.039 144.827 C 214.867 146.482,216.364 149.079,216.364 150.599 C 216.364 152.668,215.223 152.289,211.818 149.091 C 204.975 142.662,206.142 138.586,213.039 144.827 M244.442 147.727 C 242.908 152.717,242.141 153.656,240.743 152.258 C 239.176 150.691,241.744 143.636,243.881 143.636 C 244.927 143.636,245.166 145.374,244.442 147.727 M106.586 148.636 C 107.145 150.386,108.484 153.658,109.562 155.906 C 113.121 163.334,109.619 162.127,105.679 154.568 C 101.264 146.098,101.124 145.455,103.693 145.455 C 104.725 145.455,106.026 146.886,106.586 148.636 M168.376 148.331 C 167.769 149.912,167.273 151.958,167.273 152.876 C 167.273 153.794,166.455 154.545,165.455 154.545 C 163.423 154.545,162.962 148.553,164.848 146.667 C 167.150 144.366,169.477 145.463,168.376 148.331 M269.295 151.432 C 265.974 154.753,266.646 159.147,270.044 156.327 C 273.600 153.376,275.766 155.429,272.830 158.967 C 271.601 160.448,271.124 162.513,271.769 163.557 C 274.256 167.581,269.938 165.205,266.164 160.473 L 262.192 155.491 265.991 150.156 C 268.318 146.888,270.085 145.710,270.554 147.115 C 270.974 148.377,270.408 150.319,269.295 151.432 M136.364 154.653 C 136.364 161.083,133.576 160.406,132.287 153.663 C 131.700 150.590,132.225 149.091,133.888 149.091 C 135.437 149.091,136.364 151.173,136.364 154.653 M230.909 151.818 C 230.909 153.318,230.091 154.545,229.091 154.545 C 228.091 154.545,227.273 153.318,227.273 151.818 C 227.273 150.318,228.091 149.091,229.091 149.091 C 230.091 149.091,230.909 150.318,230.909 151.818 M250.909 150.638 C 250.909 156.895,246.620 164.112,245.193 160.255 C 244.255 157.719,244.527 154.888,245.923 152.653 C 248.211 148.988,250.909 147.898,250.909 150.638 M198.042 155.616 C 202.656 159.499,205.631 165.455,202.956 165.455 C 201.670 165.455,189.091 153.378,189.091 152.144 C 189.091 149.665,192.578 151.018,198.042 155.616 M215.218 160.383 C 213.839 162.614,207.273 156.544,207.273 153.038 C 207.273 150.959,208.385 151.320,211.762 154.493 C 214.231 156.812,215.786 159.463,215.218 160.383 M157.598 160.087 C 156.128 162.186,154.465 163.158,153.902 162.248 C 153.339 161.338,154.226 158.670,155.872 156.320 C 157.583 153.876,159.166 152.951,159.568 154.159 C 159.955 155.320,159.069 157.987,157.598 160.087 M186.512 157.003 C 187.030 158.355,191.096 162.189,195.546 165.523 C 199.996 168.857,203.636 172.660,203.636 173.974 C 203.636 177.594,202.646 177.032,193.711 168.348 L 185.463 160.333 182.340 165.621 C 180.622 168.529,178.622 170.909,177.897 170.909 C 174.977 170.909,174.347 166.860,176.818 163.976 C 178.264 162.289,179.955 159.477,180.576 157.727 C 181.917 153.946,185.186 153.547,186.512 157.003 M225.114 158.068 C 225.568 159.432,224.886 160.114,223.523 159.659 C 222.210 159.222,220.778 157.790,220.341 156.477 C 219.886 155.114,220.568 154.432,221.932 154.886 C 223.244 155.324,224.676 156.756,225.114 158.068 M105.163 160.995 C 106.323 163.542,107.246 166.201,107.212 166.904 C 107.125 168.737,100.000 159.922,100.000 157.980 C 100.000 154.688,103.119 156.510,105.163 160.995 M172.727 160.926 C 172.727 162.317,171.620 164.110,170.267 164.910 C 168.913 165.709,167.372 167.591,166.842 169.091 C 166.038 171.365,165.659 171.287,164.557 168.622 C 163.764 166.702,164.437 163.594,166.244 160.837 C 169.277 156.207,172.727 156.254,172.727 160.926 M258.182 157.363 C 258.182 160.422,252.305 169.045,250.838 168.138 C 248.786 166.870,253.758 156.364,256.410 156.364 C 257.385 156.364,258.182 156.813,258.182 157.363 M147.477 164.159 C 145.992 165.644,145.455 165.440,145.455 163.394 C 145.455 159.780,147.899 157.335,148.803 160.045 C 149.186 161.195,148.590 163.047,147.477 164.159 M243.636 164.489 C 243.636 165.713,242.205 169.499,240.455 172.902 C 238.705 176.306,236.447 181.889,235.437 185.309 C 234.428 188.729,232.571 191.870,231.311 192.290 C 229.507 192.892,229.462 191.957,231.100 187.891 C 232.244 185.051,233.794 181.091,234.545 179.091 C 235.296 177.091,236.831 173.166,237.955 170.369 C 240.485 164.077,240.569 161.252,238.182 162.727 C 236.169 163.971,235.668 161.301,237.560 159.410 C 239.122 157.848,243.636 161.621,243.636 164.489 M133.884 166.722 C 133.139 167.467,131.768 166.873,130.838 165.402 C 128.039 160.975,128.878 159.008,132.165 162.294 C 133.855 163.985,134.629 165.977,133.884 166.722 M214.545 167.919 C 216.734 171.851,216.812 173.107,214.938 174.282 C 213.582 175.132,213.121 177.092,213.838 178.962 C 214.943 181.842,214.664 181.923,211.173 179.743 C 206.757 176.985,205.815 172.282,210.000 173.888 C 211.669 174.529,212.727 173.888,212.727 172.235 C 212.727 170.751,211.500 168.518,210.000 167.273 C 208.500 166.028,207.273 164.223,207.273 163.262 C 207.273 160.065,211.780 162.951,214.545 167.919 M223.195 170.139 C 221.405 171.928,218.182 169.181,218.182 165.867 C 218.182 163.091,218.421 163.096,221.255 165.931 C 222.946 167.621,223.819 169.515,223.195 170.139 M261.698 170.317 C 259.218 176.840,261.344 178.160,265.538 172.700 C 268.246 169.176,269.019 168.858,269.050 171.256 C 269.073 172.947,268.239 174.857,267.199 175.500 C 266.158 176.143,265.804 178.237,266.412 180.153 C 267.020 182.069,267.091 183.636,266.569 183.636 C 265.477 183.636,256.364 174.738,256.364 173.672 C 256.364 170.450,260.358 163.643,261.745 164.500 C 262.866 165.193,262.848 167.290,261.698 170.317 M152.699 169.545 C 152.659 172.882,149.477 177.356,148.115 175.993 C 146.525 174.404,148.910 167.273,151.032 167.273 C 151.964 167.273,152.715 168.295,152.699 169.545 M159.972 169.545 C 159.932 172.860,156.754 177.360,155.406 176.012 C 154.771 175.377,155.164 173.150,156.280 171.065 C 158.575 166.778,160.013 166.186,159.972 169.545 M105.391 172.608 C 107.625 176.782,107.756 178.187,105.909 178.168 C 105.159 178.160,103.600 176.114,102.444 173.622 C 99.987 168.326,102.615 167.421,105.391 172.608 M135.160 176.027 C 134.324 179.226,133.575 179.640,131.596 177.998 C 128.256 175.226,128.399 172.576,131.818 173.888 C 133.363 174.481,134.545 173.930,134.545 172.619 C 134.545 171.345,134.922 170.680,135.382 171.140 C 135.843 171.600,135.743 173.799,135.160 176.027 M172.727 174.108 C 172.727 175.868,171.091 178.329,169.091 179.578 C 164.911 182.188,164.306 179.972,167.710 174.521 C 170.501 170.052,172.727 169.869,172.727 174.108 M187.273 172.973 C 187.273 174.109,185.243 176.919,182.761 179.219 C 176.913 184.639,174.598 181.205,180.282 175.541 C 185.094 170.746,187.273 169.946,187.273 172.973 M249.026 173.182 C 248.991 174.432,247.880 177.406,246.558 179.791 C 243.408 185.474,241.081 181.789,243.905 175.591 C 246.137 170.692,249.137 169.281,249.026 173.182 M118.141 183.383 C 118.111 185.628,117.223 185.241,114.545 181.818 C 109.714 175.642,109.771 170.307,114.606 176.111 C 116.573 178.471,118.164 181.744,118.141 183.383 M198.686 178.369 C 201.409 181.472,203.636 184.825,203.636 185.821 C 203.636 187.952,191.690 178.321,190.215 175.000 C 188.257 170.594,193.796 172.796,198.686 178.369 M223.295 179.886 C 223.750 181.250,223.068 181.932,221.705 181.477 C 220.392 181.040,218.960 179.608,218.523 178.295 C 218.068 176.932,218.750 176.250,220.114 176.705 C 221.426 177.142,222.858 178.574,223.295 179.886 M251.917 185.634 C 249.425 191.376,249.228 191.487,249.162 187.182 C 249.123 184.632,250.059 181.577,251.242 180.394 C 254.603 177.033,254.843 178.893,251.917 185.634 M153.385 182.727 C 152.278 185.611,149.091 186.511,149.091 183.939 C 149.091 182.017,151.078 180.000,152.973 180.000 C 153.775 180.000,153.960 181.227,153.385 182.727 M159.917 183.792 C 158.800 185.878,157.443 187.140,156.901 186.598 C 155.402 185.099,157.803 180.000,160.007 180.000 C 161.352 180.000,161.324 181.163,159.917 183.792 M199.637 190.807 C 203.881 196.548,204.478 198.208,202.273 198.139 C 201.523 198.115,198.509 194.852,195.575 190.886 C 190.170 183.580,183.636 184.244,183.636 192.100 C 183.636 193.445,182.818 194.545,181.818 194.545 C 178.829 194.545,179.750 189.899,183.745 184.820 C 188.097 179.287,192.287 180.866,199.637 190.807 M129.027 185.335 C 131.924 190.749,131.274 191.803,127.273 188.182 C 123.377 184.656,122.537 181.818,125.391 181.818 C 126.355 181.818,127.992 183.401,129.027 185.335 M171.882 186.521 C 168.402 191.832,169.403 194.422,173.592 190.946 C 175.874 189.052,176.364 189.148,176.364 191.488 C 176.364 193.052,175.474 194.881,174.387 195.552 C 173.300 196.224,172.827 198.366,173.335 200.311 C 174.005 202.873,173.442 203.691,171.293 203.277 C 164.403 201.950,165.983 181.818,172.978 181.818 C 174.131 181.818,173.671 183.791,171.882 186.521 M210.664 187.377 C 212.017 190.435,212.626 193.435,212.017 194.044 C 210.406 195.655,209.190 193.956,207.344 187.520 C 205.249 180.216,207.452 180.121,210.664 187.377 M115.109 192.063 C 114.373 193.981,113.422 193.387,111.595 189.866 C 108.206 183.333,108.443 182.486,112.605 186.253 C 114.537 188.002,115.664 190.616,115.109 192.063 M240.154 189.281 C 238.553 193.286,238.403 193.331,238.297 189.848 C 238.234 187.765,238.727 185.515,239.394 184.848 C 241.566 182.677,241.935 184.830,240.154 189.281 M261.818 185.347 C 261.818 186.288,261.000 187.564,260.000 188.182 C 259.000 188.800,258.182 191.057,258.182 193.198 C 258.182 195.886,257.598 196.507,256.296 195.205 C 255.010 193.919,254.996 191.779,256.251 188.478 C 258.004 183.868,261.818 181.723,261.818 185.347 M220.000 188.984 C 220.000 190.925,219.284 192.955,218.409 193.496 C 217.534 194.037,216.818 192.449,216.818 189.967 C 216.818 187.485,217.534 185.455,218.409 185.455 C 219.284 185.455,220.000 187.043,220.000 188.984 M160.338 194.592 C 159.273 197.471,158.349 198.105,157.416 196.595 C 156.665 195.380,157.056 193.175,158.284 191.695 C 161.286 188.078,162.247 189.433,160.338 194.592 M126.351 198.201 C 124.778 200.747,121.893 197.283,121.846 192.792 C 121.823 190.572,122.307 190.619,124.761 193.072 C 126.382 194.693,127.096 196.997,126.351 198.201 M196.364 200.432 C 196.364 203.470,195.907 203.702,193.636 201.818 C 192.136 200.573,190.909 198.428,190.909 197.050 C 190.909 192.711,187.480 194.325,184.515 200.059 C 182.946 203.092,180.867 205.081,179.893 204.479 C 177.885 203.238,178.453 202.046,184.046 195.767 C 188.672 190.573,196.364 193.486,196.364 200.432 M145.397 205.708 C 145.429 209.348,146.729 219.043,148.286 227.254 C 151.455 243.957,150.641 250.636,144.302 259.968 C 141.936 263.450,140.000 267.771,140.000 269.571 C 140.000 271.371,138.647 275.886,136.994 279.604 C 135.340 283.322,134.126 287.287,134.296 288.417 C 134.465 289.546,133.159 290.885,131.393 291.392 C 129.627 291.900,126.750 292.904,125.000 293.625 C 122.371 294.707,121.818 293.952,121.818 289.285 C 121.818 284.493,122.498 283.636,126.300 283.636 C 128.870 283.636,131.584 282.136,132.663 280.120 C 135.313 275.169,135.079 274.689,130.433 275.532 C 125.519 276.423,125.199 269.641,128.927 243.636 C 130.447 233.034,130.571 226.755,129.323 223.636 C 127.670 219.509,127.493 219.801,127.388 226.818 C 127.253 235.844,124.596 237.070,122.955 228.864 C 120.814 218.161,121.570 209.521,124.329 213.154 C 126.978 216.642,129.393 215.630,127.872 211.668 C 127.330 210.255,129.785 206.348,133.452 202.787 C 137.054 199.289,140.000 195.439,140.000 194.230 C 140.000 193.021,141.201 193.620,142.669 195.562 C 144.138 197.503,145.365 202.069,145.397 205.708 M245.000 199.058 C 245.000 201.540,244.284 203.128,243.409 202.587 C 242.534 202.046,241.818 200.015,241.818 198.075 C 241.818 196.134,242.534 194.545,243.409 194.545 C 244.284 194.545,245.000 196.576,245.000 199.058 M218.791 211.852 C 217.372 263.322,218.148 276.200,222.904 280.147 C 225.608 282.390,226.405 287.273,224.068 287.273 C 220.063 287.273,208.712 257.296,210.348 251.041 C 210.890 248.968,210.522 247.273,209.530 247.273 C 207.538 247.273,205.455 255.752,205.455 263.864 C 205.455 266.739,204.599 269.091,203.554 269.091 C 201.530 269.091,202.551 260.006,205.752 249.535 C 206.747 246.280,207.346 235.589,207.082 225.779 C 206.666 210.274,207.063 207.439,210.120 204.096 C 216.402 197.225,219.127 199.662,218.791 211.852 M253.176 204.524 C 252.195 209.657,249.091 208.901,249.091 203.529 C 249.091 201.588,250.205 200.000,251.566 200.000 C 253.223 200.000,253.755 201.496,253.176 204.524 M152.699 215.909 C 152.715 220.159,151.909 223.636,150.909 223.636 C 149.905 223.636,149.103 218.958,149.119 213.182 C 149.139 205.761,149.658 203.519,150.909 205.455 C 151.878 206.955,152.684 211.659,152.699 215.909 M167.513 207.513 C 170.925 210.925,171.262 212.761,170.323 222.814 C 169.737 229.097,170.058 236.966,171.039 240.301 C 175.766 256.383,175.997 266.970,171.646 268.063 C 168.971 268.734,167.150 270.963,166.369 274.523 C 165.712 277.512,164.420 280.425,163.496 280.996 C 162.573 281.566,161.818 282.831,161.818 283.806 C 161.818 284.782,164.245 283.097,167.211 280.063 C 173.022 274.119,175.520 273.020,173.956 277.096 C 173.417 278.499,174.122 281.158,175.522 283.005 C 178.761 287.280,178.823 289.091,175.732 289.091 C 174.385 289.091,172.385 287.250,171.287 285.000 L 169.292 280.909 168.070 285.000 C 166.589 289.961,163.416 290.234,159.358 285.750 C 156.528 282.622,156.568 282.197,159.985 279.104 C 163.939 275.526,165.211 270.973,161.364 274.171 C 159.571 275.661,159.065 271.966,158.967 256.666 C 158.898 246.000,157.733 231.075,156.377 223.499 C 152.908 204.108,157.506 197.506,167.513 207.513 M190.909 205.347 C 190.909 207.492,187.363 209.787,186.061 208.485 C 184.758 207.182,187.053 203.636,189.198 203.636 C 190.139 203.636,190.909 204.406,190.909 205.347 M224.892 222.375 C 223.707 240.412,220.341 254.181,220.115 241.913 C 219.978 234.454,224.010 205.455,225.184 205.455 C 225.634 205.455,225.503 213.069,224.892 222.375 M179.524 223.758 C 180.087 237.911,179.035 248.732,177.268 246.965 C 175.812 245.509,172.454 212.427,173.489 209.730 C 176.176 202.727,178.943 209.160,179.524 223.758 M202.490 215.000 C 204.227 221.481,203.812 240.000,201.930 240.000 C 200.991 240.000,199.732 236.114,199.131 231.364 C 198.531 226.614,197.703 220.574,197.290 217.942 C 196.103 210.365,200.571 207.837,202.490 215.000 M194.089 227.273 C 194.338 231.773,195.909 242.262,197.582 250.582 C 200.143 263.328,200.266 267.101,198.358 274.542 C 196.717 280.948,196.631 284.375,198.047 287.022 C 201.023 292.581,200.595 292.979,192.286 292.377 L 184.572 291.818 183.240 282.727 C 182.281 276.180,182.531 228.038,183.573 218.516 C 184.228 212.539,193.711 220.436,194.089 227.273 M142.314 232.610 C 142.820 234.545,142.183 241.170,140.897 247.330 C 139.612 253.491,139.281 257.810,140.162 256.929 C 143.900 253.190,146.725 229.091,143.424 229.091 C 142.308 229.091,141.808 230.674,142.314 232.610 M156.182 266.875 C 156.310 272.336,155.526 274.981,153.558 275.736 C 149.451 277.312,149.347 276.669,151.447 262.727 C 153.515 248.998,155.813 251.011,156.182 266.875 M227.955 260.227 C 229.578 268.345,229.357 276.364,227.511 276.364 C 225.912 276.364,223.693 266.157,223.656 258.636 C 223.627 252.565,226.646 253.682,227.955 260.227 M210.909 272.835 C 210.909 277.292,210.189 279.770,209.091 279.091 C 208.091 278.473,207.273 275.152,207.273 271.711 C 207.273 268.270,208.091 265.455,209.091 265.455 C 210.091 265.455,210.909 268.776,210.909 272.835 M152.798 283.505 C 151.766 285.432,151.487 288.500,152.178 290.323 C 153.363 293.451,153.257 293.462,150.293 290.525 C 147.651 287.906,147.521 286.827,149.469 283.707 C 152.410 278.997,155.304 278.821,152.798 283.505 M276.364 291.862 C 276.364 294.514,273.011 292.068,271.201 288.096 C 267.786 280.601,268.798 278.588,272.734 285.044 C 274.730 288.318,276.364 291.386,276.364 291.862 M116.112 290.819 C 114.799 293.785,113.210 295.326,112.556 294.268 C 111.906 293.216,112.643 289.810,114.194 286.700 C 117.676 279.722,119.392 283.409,116.112 290.819 M213.839 284.672 C 214.735 282.338,215.416 282.103,216.448 283.774 C 218.891 287.725,216.447 290.617,211.731 289.356 C 209.317 288.710,207.326 287.568,207.307 286.818 C 207.178 281.704,207.659 281.267,210.008 284.370 C 212.448 287.594,212.710 287.615,213.839 284.672 M234.488 288.859 C 234.439 291.345,234.003 291.254,231.760 288.289 C 228.286 283.695,228.323 280.735,231.818 283.636 C 233.318 284.881,234.519 287.231,234.488 288.859 M266.645 284.624 C 267.237 286.167,267.232 287.920,266.632 288.519 C 265.337 289.814,260.000 285.706,260.000 283.414 C 260.000 280.670,265.513 281.674,266.645 284.624 M261.455 289.455 C 264.887 292.887,264.005 294.871,260.000 292.727 C 258.000 291.657,256.364 289.992,256.364 289.027 C 256.364 286.619,258.826 286.826,261.455 289.455 M209.276 299.255 C 221.729 305.515,230.315 321.865,228.279 335.441 C 222.385 374.743,163.499 372.809,158.803 333.160 C 155.693 306.898,185.136 287.119,209.276 299.255 M156.364 298.075 C 156.364 300.220,152.818 302.515,151.515 301.212 C 150.213 299.910,152.508 296.364,154.653 296.364 C 155.594 296.364,156.364 297.134,156.364 298.075 M162.476 299.091 C 161.369 301.975,158.182 302.874,158.182 300.303 C 158.182 298.380,160.169 296.364,162.064 296.364 C 162.866 296.364,163.051 297.591,162.476 299.091 M232.386 299.886 C 232.841 301.250,232.159 301.932,230.795 301.477 C 229.483 301.040,228.051 299.608,227.614 298.295 C 227.159 296.932,227.841 296.250,229.205 296.705 C 230.517 297.142,231.949 298.574,232.386 299.886 M248.219 298.825 C 249.496 298.335,251.052 298.760,251.676 299.770 C 252.351 300.862,250.824 301.454,247.912 301.230 C 245.217 301.023,242.641 299.639,242.188 298.154 C 241.549 296.063,241.875 295.935,243.631 297.585 C 244.878 298.757,246.942 299.315,248.219 298.825 M176.364 303.948 C 150.506 321.270,162.912 360.008,194.313 359.997 C 223.946 359.987,236.223 322.185,212.157 305.049 C 203.411 298.821,184.869 298.251,176.364 303.948 M192.967 308.332 L 194.115 313.636 194.330 307.727 C 194.449 304.477,195.364 301.818,196.364 301.818 C 198.424 301.818,198.633 304.495,197.036 310.455 C 195.661 315.584,189.091 316.083,189.091 311.058 C 189.091 309.140,188.551 306.164,187.892 304.446 C 187.050 302.252,187.456 301.576,189.256 302.175 C 190.665 302.644,192.335 305.414,192.967 308.332 M120.567 307.915 C 122.109 310.269,124.539 316.200,125.966 321.097 L 128.561 330.000 139.735 330.327 C 147.293 330.549,150.910 329.960,150.912 328.509 C 150.914 327.133,147.502 326.364,141.401 326.364 L 131.886 326.364 128.423 316.763 C 124.212 305.090,123.308 305.963,140.741 304.860 C 155.268 303.941,162.004 306.196,159.043 310.987 C 158.389 312.045,157.305 316.749,156.634 321.440 C 155.635 328.423,154.480 330.418,150.269 332.436 C 146.876 334.062,145.414 335.926,145.977 337.906 C 148.373 346.343,148.356 346.375,141.818 345.938 C 138.318 345.704,133.824 345.464,131.832 345.404 C 129.839 345.344,126.413 344.118,124.217 342.679 C 120.631 340.330,120.117 340.402,119.168 343.392 C 118.587 345.223,116.082 347.646,113.601 348.776 C 109.127 350.815,108.029 352.877,110.241 355.090 C 110.874 355.723,112.946 354.264,114.846 351.849 C 117.948 347.906,119.268 347.566,127.786 348.516 C 148.483 350.824,157.593 360.227,140.340 361.473 C 135.639 361.812,132.129 363.079,131.525 364.655 C 130.972 366.095,129.815 367.273,128.953 367.273 C 128.092 367.273,127.858 366.045,128.433 364.545 C 129.009 363.045,128.574 361.818,127.467 361.818 C 126.360 361.818,125.455 363.045,125.455 364.545 C 125.455 368.485,123.758 367.918,119.555 362.574 C 116.788 359.057,115.493 358.467,114.404 360.229 C 113.243 362.108,112.285 362.003,109.656 359.710 C 107.845 358.131,105.341 357.209,104.091 357.661 C 102.724 358.157,101.818 356.933,101.818 354.590 C 101.818 352.447,101.000 351.200,100.000 351.818 C 98.222 352.917,97.170 344.416,97.830 334.283 C 98.003 331.638,97.440 325.706,96.579 321.101 C 94.705 311.071,97.062 309.870,99.631 319.545 C 100.775 323.852,101.512 324.911,101.630 322.421 C 101.901 316.749,103.719 312.727,106.013 312.727 C 107.342 312.727,107.278 313.449,105.818 314.909 C 102.830 317.898,103.080 322.729,106.364 325.455 C 110.193 328.632,109.756 334.986,105.455 338.669 C 101.785 341.811,100.894 346.385,102.921 351.668 C 103.824 354.021,104.732 353.644,107.921 349.589 C 111.431 345.129,112.631 340.880,112.685 332.727 C 112.793 316.402,112.641 315.361,110.808 319.809 C 108.279 325.943,106.802 323.451,108.284 315.551 C 110.409 304.223,115.908 300.805,120.567 307.915 M186.169 306.512 C 188.654 312.988,187.412 317.742,184.545 312.727 C 183.116 310.227,181.918 307.159,181.883 305.909 C 181.791 302.664,184.858 303.096,186.169 306.512 M205.455 305.253 C 205.455 307.173,198.330 316.020,198.242 314.209 C 198.095 311.167,201.904 303.636,203.591 303.636 C 204.616 303.636,205.455 304.364,205.455 305.253 M231.846 305.499 C 232.479 306.523,232.459 309.810,231.802 312.802 L 230.607 318.244 226.212 311.768 C 223.796 308.207,221.818 304.920,221.818 304.465 C 221.818 302.781,230.734 303.701,231.846 305.499 M242.827 308.578 C 243.788 306.073,244.617 305.823,246.576 307.449 C 250.269 310.514,249.639 317.809,245.455 320.422 C 243.455 321.671,241.818 323.723,241.818 324.983 C 241.818 327.584,240.113 327.866,236.866 325.804 C 235.473 324.918,234.745 320.454,234.919 313.853 C 235.195 303.382,235.217 303.342,238.394 307.555 C 241.296 311.401,241.707 311.496,242.827 308.578 M183.168 316.213 C 182.926 317.630,181.828 319.089,180.730 319.455 C 178.020 320.357,169.651 313.391,171.371 311.664 C 172.125 310.908,174.947 312.269,177.642 314.690 L 182.543 319.091 179.453 314.155 C 175.196 307.354,175.631 303.513,180.027 309.091 C 181.997 311.591,183.410 314.796,183.168 316.213 M262.529 308.243 C 265.686 311.401,269.446 323.409,268.006 325.738 C 265.988 329.004,262.089 327.028,260.272 321.818 C 259.227 318.818,257.081 316.364,255.504 316.364 C 253.202 316.364,249.091 309.878,249.091 306.245 C 249.091 304.159,260.078 305.792,262.529 308.243 M212.727 309.640 C 215.741 312.127,220.588 320.018,219.668 320.938 C 219.346 321.260,216.631 322.063,213.633 322.723 L 208.182 323.923 212.727 320.184 C 218.035 315.817,214.605 315.049,208.286 319.190 C 202.455 323.011,200.699 319.728,204.832 312.731 C 208.437 306.628,208.873 306.458,212.727 309.640 M276.336 313.289 C 276.313 316.528,275.978 316.763,274.545 314.545 C 273.120 312.340,272.778 312.601,272.755 315.909 C 272.740 318.159,273.499 320.000,274.442 320.000 C 277.170 320.000,281.640 312.561,280.577 309.791 C 280.046 308.406,280.429 307.273,281.429 307.273 C 285.439 307.273,289.160 335.868,286.519 346.391 C 285.335 351.110,285.145 351.187,282.694 347.951 C 280.308 344.799,280.107 345.019,280.000 350.909 C 279.894 356.740,279.673 356.994,277.355 353.934 C 275.767 351.840,275.198 348.297,275.826 344.424 C 276.488 340.346,275.824 336.720,273.869 333.736 C 270.880 329.175,270.042 318.875,272.050 311.384 C 273.376 306.435,276.374 307.767,276.336 313.289 M151.954 312.577 C 150.219 314.495,149.069 317.747,149.399 319.804 C 149.870 322.736,150.659 321.982,153.047 316.318 C 156.503 308.119,156.378 307.689,151.954 312.577 M206.354 314.557 C 201.493 319.928,204.095 320.772,209.098 315.447 C 211.443 312.951,212.527 310.909,211.508 310.909 C 210.488 310.909,208.169 312.550,206.354 314.557 M180.000 324.575 C 180.000 325.238,168.852 321.824,167.545 320.760 C 167.195 320.475,167.457 319.355,168.127 318.270 C 169.189 316.552,180.000 322.293,180.000 324.575 M256.594 322.045 C 256.221 323.420,255.678 327.168,255.388 330.374 C 255.098 333.579,254.260 337.173,253.526 338.360 C 252.793 339.547,251.699 345.040,251.096 350.567 C 249.405 366.073,245.754 364.736,246.374 348.837 C 246.723 339.880,246.339 336.666,245.171 338.753 C 244.227 340.439,242.202 341.818,240.670 341.818 C 238.385 341.818,238.587 340.683,241.798 335.488 C 243.950 332.006,245.239 328.395,244.664 327.464 C 243.425 325.460,252.820 318.026,255.455 318.925 C 256.455 319.266,256.967 320.670,256.594 322.045 M175.364 327.477 C 176.395 328.440,174.746 329.091,171.273 329.091 C 167.202 329.091,165.455 328.235,165.455 326.241 C 165.455 323.273,171.697 324.052,175.364 327.477 M197.886 325.233 C 202.233 327.989,199.675 335.387,194.154 336.024 C 190.106 336.491,188.999 335.720,187.999 331.738 C 186.338 325.119,191.917 321.449,197.886 325.233 M221.818 325.227 C 221.818 326.102,219.159 327.473,215.909 328.274 L 210.000 329.729 215.909 330.434 C 221.313 331.079,224.557 334.545,219.756 334.545 C 215.851 334.545,203.636 330.331,203.636 328.984 C 203.636 328.241,206.705 326.819,210.455 325.823 C 219.448 323.435,221.818 323.310,221.818 325.227 M292.785 329.545 C 292.721 337.151,293.552 337.980,296.229 332.978 C 297.533 330.543,297.312 328.630,295.442 326.160 C 293.039 322.986,292.839 323.241,292.785 329.545 M191.128 327.918 C 189.543 329.827,189.645 330.924,191.555 332.508 C 193.464 334.093,194.560 333.991,196.145 332.082 C 197.729 330.173,197.627 329.076,195.718 327.492 C 193.809 325.907,192.712 326.009,191.128 327.918 M270.845 334.426 C 273.775 339.900,273.168 342.686,266.818 352.904 C 262.701 359.530,260.723 361.455,260.295 359.253 C 259.958 357.515,260.856 354.722,262.292 353.047 C 268.040 346.338,267.768 343.239,261.551 344.604 C 256.209 345.777,255.909 345.578,256.983 341.566 C 257.615 339.205,258.143 335.841,258.157 334.091 C 258.193 329.481,268.342 329.749,270.845 334.426 M172.727 334.545 C 169.170 336.844,165.455 336.844,165.455 334.545 C 165.455 333.545,167.705 332.740,170.455 332.755 C 174.351 332.777,174.852 333.172,172.727 334.545 M234.927 354.271 C 232.262 359.952,230.830 360.990,224.997 361.473 C 216.798 362.152,216.761 361.930,223.515 352.606 C 226.448 348.557,229.410 342.685,230.097 339.557 L 231.347 333.869 234.694 340.751 C 237.878 347.298,237.890 347.955,234.927 354.271 M157.036 340.455 C 158.770 346.925,158.420 347.441,154.545 344.124 C 150.352 340.533,149.750 336.364,153.424 336.364 C 154.808 336.364,156.433 338.205,157.036 340.455 M174.545 340.000 C 169.102 344.258,167.273 344.518,167.273 341.036 C 167.273 338.782,170.328 337.443,177.273 336.652 C 178.273 336.538,177.045 338.044,174.545 340.000 M221.727 338.032 C 222.177 338.115,221.633 339.095,220.517 340.210 C 219.024 341.703,217.367 341.440,214.244 339.214 L 210.000 336.189 215.455 337.036 C 218.455 337.502,221.277 337.950,221.727 338.032 M179.684 343.536 C 175.228 349.177,170.909 350.731,170.909 346.694 C 170.909 344.852,179.486 339.050,183.320 338.298 C 183.646 338.234,182.010 340.591,179.684 343.536 M183.408 347.291 C 180.666 352.169,178.706 353.978,177.485 352.758 C 176.264 351.537,177.394 349.124,180.898 345.467 C 187.837 338.223,188.311 338.567,183.408 347.291 M215.559 342.579 C 217.498 343.997,218.450 345.792,217.674 346.569 C 216.898 347.345,214.467 346.184,212.273 343.990 C 207.825 339.542,210.081 338.573,215.559 342.579 M214.545 350.017 C 214.545 353.374,210.381 351.638,206.982 346.864 L 202.776 340.958 208.661 345.148 C 211.897 347.453,214.545 349.644,214.545 350.017 M187.967 350.619 C 187.308 353.915,185.688 356.364,184.167 356.364 C 182.708 356.364,181.814 355.750,182.180 355.000 C 188.459 342.111,189.884 341.032,187.967 350.619 M200.626 356.818 C 197.934 361.186,189.046 358.080,190.221 353.182 C 191.685 347.081,192.727 345.631,192.727 349.697 C 192.727 354.322,196.343 353.308,196.511 348.636 C 196.642 345.007,196.930 345.160,199.063 350.000 C 200.385 353.000,201.088 356.068,200.626 356.818 M207.099 355.439 C 204.895 357.652,201.868 353.439,201.886 348.182 C 201.898 344.858,202.200 344.936,205.397 349.091 C 207.702 352.086,208.282 354.251,207.099 355.439 M156.719 352.158 C 161.719 356.949,163.449 361.818,160.152 361.818 C 159.235 361.818,158.008 360.795,157.424 359.545 C 156.576 357.727,156.152 357.727,155.303 359.545 C 153.365 363.697,150.627 361.894,151.160 356.817 C 151.448 354.066,151.052 350.794,150.280 349.544 C 147.859 345.626,151.402 347.065,156.719 352.158 M241.017 356.155 C 236.777 364.355,234.329 363.113,237.720 354.482 C 239.473 350.018,241.256 347.801,242.273 348.819 C 243.291 349.837,242.799 352.708,241.017 356.155 M261.758 349.545 C 261.724 350.795,260.161 353.659,258.284 355.909 C 252.762 362.529,251.126 360.812,254.500 351.937 C 256.298 347.209,261.869 345.373,261.758 349.545 M272.672 355.909 C 272.625 360.198,272.352 360.455,270.755 357.713 C 269.732 355.955,269.396 353.705,270.009 352.713 C 271.889 349.671,272.730 350.680,272.672 355.909 M170.353 366.209 C 169.741 368.051,160.000 368.966,160.000 367.181 C 160.000 364.976,162.097 364.038,166.466 364.290 C 168.908 364.430,170.657 365.294,170.353 366.209 M241.818 367.153 C 241.818 367.969,239.773 368.636,237.273 368.636 C 232.084 368.636,231.128 366.084,235.909 364.999 C 239.549 364.172,241.818 364.999,241.818 367.153 " stroke="none" fill="#000000" fill-rule="evenodd"></path></g></svg>