<?xml version="1.0" standalone="no"?>
<!DOCTYPE svg PUBLIC "-//W3C//DTD SVG 20010904//EN"
 "http://www.w3.org/TR/2001/REC-SVG-20010904/DTD/svg10.dtd">
<svg version="1.0" xmlns="http://www.w3.org/2000/svg"
 width="548.000000pt" height="349.000000pt" viewBox="0 0 548.000000 349.000000"
 preserveAspectRatio="xMidYMid meet">
<metadata>
Created by potrace 1.15, written by Peter Selinger 2001-2017
</metadata>
<g transform="translate(0.000000,349.000000) scale(0.100000,-0.100000)"
fill="#000000" stroke="none">
<path d="M2394 1744 c-5 -1 -35 -5 -67 -9 l-57 -6 2 -222 3 -222 101 0 c91 1
105 4 147 28 55 33 80 66 95 129 24 94 3 208 -46 261 -36 38 -116 56 -178 41z
m126 -64 c38 -27 54 -90 46 -182 -8 -99 -10 -108 -15 -103 -2 3 -10 -4 -17
-14 -23 -32 -78 -51 -148 -51 l-66 0 0 179 c0 205 -9 188 103 190 54 1 75 -3
97 -19z"/>
<path d="M3780 1727 c0 -24 2 -24 75 -19 l75 5 0 -217 0 -217 23 3 c22 3 22 4
25 217 l2 214 73 -6 c71 -5 73 -5 75 19 l2 24 -175 0 -175 0 0 -23z"/>
<path d="M4800 1514 l0 -235 23 3 c21 3 22 8 27 125 6 134 4 132 82 173 40 21
73 26 82 11 4 -5 6 -71 7 -146 0 -151 3 -165 30 -165 27 0 30 25 27 189 -3
143 -3 144 -30 164 -35 26 -84 17 -143 -28 -25 -19 -47 -35 -50 -35 -3 0 -5
41 -5 90 0 89 0 90 -25 90 l-25 0 0 -236z"/>
<path d="M2820 1628 c-109 -56 -125 -250 -27 -322 67 -49 257 -3 222 53 -4 7
-20 4 -45 -9 -42 -22 -110 -26 -141 -10 -20 11 -49 60 -49 83 0 10 25 17 88
25 48 6 100 15 116 21 27 11 28 13 21 59 -8 60 -28 90 -70 108 -46 19 -63 18
-115 -8z m113 -45 c8 -10 17 -31 19 -48 3 -26 -1 -31 -32 -42 -51 -18 -140
-17 -140 1 0 26 18 64 41 85 29 26 89 28 112 4z"/>
<path d="M3088 1643 c-10 -2 -18 -6 -18 -7 0 -23 81 -341 89 -349 7 -7 20 -8
38 -1 30 10 52 58 92 202 13 45 27 82 30 82 4 0 23 -64 42 -142 30 -127 36
-143 56 -146 35 -5 57 27 92 134 39 114 53 234 29 234 -25 0 -35 -21 -42 -86
-8 -76 -48 -224 -60 -224 -8 -1 -49 148 -71 253 -10 46 -17 57 -39 57 -30 0
-40 -14 -55 -74 -21 -86 -72 -236 -80 -236 -4 0 -18 59 -30 132 -13 72 -27
142 -32 155 -9 23 -11 24 -41 16z"/>
<path d="M4183 1635 c-80 -35 -119 -143 -89 -247 18 -64 48 -92 109 -103 44
-9 123 9 157 35 20 15 22 21 11 33 -11 14 -16 14 -44 -4 -38 -23 -123 -25
-150 -4 -11 7 -25 31 -32 52 l-13 38 56 7 c32 4 83 12 115 19 57 12 57 12 57
48 0 20 -9 55 -19 78 -16 34 -26 44 -58 51 -48 12 -65 12 -100 -3z m111 -57
c9 -12 16 -35 16 -50 0 -23 -6 -29 -37 -37 -21 -6 -62 -11 -91 -11 -58 0 -57
-2 -31 66 20 54 114 74 143 32z"/>
<path d="M4555 1635 c-90 -32 -129 -144 -90 -256 20 -55 39 -75 83 -90 65 -21
192 24 177 63 -6 15 -11 14 -51 -3 -46 -21 -140 -23 -142 -4 0 5 -8 31 -18 57
-23 66 -12 132 27 169 25 23 40 29 92 31 56 3 62 5 65 26 3 20 0 22 -50 22
-29 -1 -71 -7 -93 -15z"/>
</g>
</svg>
